<?xml version="1.0" encoding="UTF-8" ?>
<svg width="1846" height="778" fill="none" xmlns="http://www.w3.org/2000/svg">
  <path d="M923.786 774.103c-131.736 30.416-221.249-133.495-346.23-187.568-96.269-40.556-206.05-11.829-309.074-5.07-104.714 6.759-229.6946-23.657-261.78429-123.356C-23.703 365.17 53.9877 263.782 146.879 231.675c92.891-32.106 194.227-20.277 292.185-15.208 97.958 6.759 204.36 1.69 282.051-57.453C797.117 103.25 849.474-4.89731 944.054.172106 1026.81 5.24152 1077.48 99.8706 1158.55 116.769c99.64 21.967 180.71-77.7314 278.67-103.0785C1547-15.0362 1663.54 52.556 1724.34 148.875c64.18 98.009 145.25 309.234 114.85 429.21-37.16 140.254-221.25 234.883-354.68 179.12-111.47-47.315-204.36-172.36-322.58-143.634-94.58 21.968-143.56 138.564-238.144 160.532z" fill="#F0F4F7"/>
</svg>
