<?xml version="1.0" encoding="UTF-8" ?>
<svg width="1846" height="778" fill="none" xmlns="http://www.w3.org/2000/svg">
  <path d="M921.989 774.103c131.741 30.416 221.251-133.495 346.231-187.568 96.27-40.556 206.05-11.829 309.07-5.07 104.72 6.759 229.7-23.657 261.79-123.356 30.4-92.939-47.29-194.327-140.18-226.434-92.89-32.106-194.23-20.277-292.19-15.208-97.96 6.759-204.36 1.69-282.05-57.453C1048.66 103.25 996.302-4.89731 901.722.172106 818.965 5.24152 768.297 99.8706 687.228 116.769c-99.647 21.967-180.715-77.7314-278.673-103.0785C298.774-15.0362 182.238 52.556 121.437 148.875 57.2573 246.884-23.8113 458.109 6.58945 578.085 43.7458 718.339 227.839 812.968 361.265 757.205c111.469-47.315 204.36-172.36 322.585-143.634 94.58 21.968 143.559 138.564 238.139 160.532z" fill="#F0F4F7"/>
  <path d="M921.989 774.103c131.741 30.416 221.251-133.495 346.231-187.568 96.27-40.556 206.05-11.829 309.07-5.07 104.72 6.759 229.7-23.657 261.79-123.356 30.4-92.939-47.29-194.327-140.18-226.434-92.89-32.106-194.23-20.277-292.19-15.208-97.96 6.759-204.36 1.69-282.05-57.453C1048.66 103.25 996.302-4.89731 901.722.172106 818.965 5.24152 768.297 99.8706 687.228 116.769c-99.647 21.967-180.715-77.7314-278.673-103.0785C298.774-15.0362 182.238 52.556 121.437 148.875 57.2573 246.884-23.8113 458.109 6.58945 578.085 43.7458 718.339 227.839 812.968 361.265 757.205c111.469-47.315 204.36-172.36 322.585-143.634 94.58 21.968 143.559 138.564 238.139 160.532z" fill="#F0F4F7"/>
</svg>
