<?xml version="1.0" encoding="UTF-8" ?>
<svg width="54" height="107" fill="none" xmlns="http://www.w3.org/2000/svg">
  <g clip-path="url(#clip0)" fill="#00B3BB">
    <path d="M0 47.9246c0 .9222.748038 1.6767 1.67559 1.6767.92157 0 1.67558-.7486 1.67558-1.6767 0-.9282-.74802-1.6768-1.67558-1.6768C.748038 46.2478 0 46.9964 0 47.9246zM0 36.3611c0 .9282.748038 1.6767 1.67559 1.6767.92157 0 1.67558-.7485 1.67558-1.6767 0-.9222-.74802-1.6767-1.67558-1.6767C.748038 34.6844 0 35.4389 0 36.3611zM0 24.7976c0 .9282.748038 1.6768 1.67559 1.6768.92157 0 1.67558-.7486 1.67558-1.6768 0-.9222-.74802-1.6768-1.67558-1.6768C.748038 23.1208 0 23.8754 0 24.7976zM0 13.2401c0 .9222.748038 1.6768 1.67559 1.6768.92157 0 1.67558-.7486 1.67558-1.6768s-.74802-1.6767-1.67558-1.6767C.748038 11.5634 0 12.3119 0 13.2401zM3.35117 1.67694c0-.922209-.74802-1.676773-1.67558-1.676772C.754022.000168 0 .748743 0 1.67694c0 .92221.748038 1.6767 1.67559 1.6767.92157-.00599 1.67558-.75449 1.67558-1.6767zM9.38281 47.9246c0 .9222.74809 1.6767 1.67559 1.6767.9276 0 1.6756-.7486 1.6756-1.6767 0-.9282-.748-1.6768-1.6756-1.6768-.9275 0-1.67559.7486-1.67559 1.6768zM9.38281 36.3611c0 .9282.74809 1.6767 1.67559 1.6767.9276 0 1.6756-.7485 1.6756-1.6767 0-.9222-.748-1.6767-1.6756-1.6767-.9275 0-1.67559.7545-1.67559 1.6767zM9.38281 24.7976c0 .9282.74809 1.6768 1.67559 1.6768.9276 0 1.6756-.7486 1.6756-1.6768 0-.9222-.748-1.6768-1.6756-1.6768-.9275 0-1.67559.7546-1.67559 1.6768zM9.38281 13.2401c0 .9222.74809 1.6768 1.67559 1.6768.9276 0 1.6756-.7486 1.6756-1.6768s-.748-1.6767-1.6756-1.6767c-.9275 0-1.67559.7485-1.67559 1.6767zM9.38281 1.67694c0 .92221.74809 1.6767 1.67559 1.6767.9276 0 1.6756-.7485 1.6756-1.6767 0-.922209-.748-1.676773-1.6756-1.676772-.9275 0-1.67559.748575-1.67559 1.676772zM18.7662 47.9246c0 .9222.7481 1.6767 1.6756 1.6767.9276 0 1.6756-.7486 1.6756-1.6767 0-.9282-.748-1.6768-1.6756-1.6768-.9275 0-1.6756.7486-1.6756 1.6768zM18.7662 36.3611c0 .9282.7481 1.6767 1.6756 1.6767.9276 0 1.6756-.7485 1.6756-1.6767 0-.9222-.748-1.6767-1.6756-1.6767-.9275 0-1.6756.7545-1.6756 1.6767zM18.7662 24.7976c0 .9282.7481 1.6768 1.6756 1.6768.9276 0 1.6756-.7486 1.6756-1.6768 0-.9222-.748-1.6768-1.6756-1.6768-.9275 0-1.6756.7546-1.6756 1.6768zM18.7662 13.2401c0 .9222.7481 1.6768 1.6756 1.6768.9276 0 1.6756-.7486 1.6756-1.6768s-.748-1.6767-1.6756-1.6767c-.9275 0-1.6756.7485-1.6756 1.6767zM18.7662 1.67694c0 .92221.7481 1.6767 1.6756 1.6767.9276 0 1.6756-.7485 1.6756-1.6767 0-.922209-.748-1.676773-1.6756-1.676772-.9275 0-1.6756.748575-1.6756 1.676772zM28.1504 47.9246c0 .9222.748 1.6767 1.6756 1.6767.9215 0 1.6756-.7486 1.6756-1.6767 0-.9282-.7481-1.6768-1.6756-1.6768-.9276 0-1.6756.7486-1.6756 1.6768zM28.1504 36.3611c0 .9282.748 1.6767 1.6756 1.6767.9215 0 1.6756-.7485 1.6756-1.6767 0-.9222-.7481-1.6767-1.6756-1.6767-.9276 0-1.6756.7545-1.6756 1.6767zM28.1504 24.7976c0 .9282.748 1.6768 1.6756 1.6768.9215 0 1.6756-.7486 1.6756-1.6768 0-.9222-.7481-1.6767-1.6756-1.6767-.9276 0-1.6756.7545-1.6756 1.6767zM28.1504 13.2401c0 .9222.748 1.6768 1.6756 1.6768.9215 0 1.6756-.7486 1.6756-1.6768s-.7481-1.6767-1.6756-1.6767c-.9276 0-1.6756.7485-1.6756 1.6767zM28.1504 1.67694c0 .92221.748 1.6767 1.6756 1.6767.9215 0 1.6756-.7485 1.6756-1.6767 0-.922209-.7481-1.676773-1.6756-1.676772-.9276 0-1.6756.748575-1.6756 1.676772zM37.527 47.9246c0 .9222.748 1.6767 1.6756 1.6767.9215 0 1.6755-.7486 1.6755-1.6767 0-.9282-.748-1.6768-1.6755-1.6768-.9216 0-1.6756.7486-1.6756 1.6768zM37.527 36.3611c0 .9282.748 1.6767 1.6756 1.6767.9215 0 1.6755-.7485 1.6755-1.6767 0-.9222-.748-1.6767-1.6755-1.6767-.9216 0-1.6756.7545-1.6756 1.6767zM37.527 24.7976c0 .9282.748 1.6768 1.6756 1.6768.9215 0 1.6755-.7486 1.6755-1.6768 0-.9222-.748-1.6767-1.6755-1.6767-.9216 0-1.6756.7545-1.6756 1.6767zM37.527 13.2401c0 .9222.748 1.6768 1.6756 1.6768.9215 0 1.6755-.7486 1.6755-1.6768s-.748-1.6767-1.6755-1.6767c-.9216 0-1.6756.7485-1.6756 1.6767zM37.527 1.67694c0 .92221.748 1.6767 1.6756 1.6767.9215 0 1.6755-.7485 1.6755-1.6767 0-.922209-.748-1.676773-1.6755-1.676772-.9216 0-1.6756.748575-1.6756 1.676772zM46.9104 47.9246c0 .9222.748 1.6767 1.6756 1.6767.9216 0 1.6756-.7486 1.6756-1.6767 0-.9282-.7481-1.6768-1.6756-1.6768-.9276 0-1.6756.7486-1.6756 1.6768zM46.9104 36.3611c0 .9282.748 1.6767 1.6756 1.6767.9216 0 1.6756-.7485 1.6756-1.6767 0-.9222-.7481-1.6767-1.6756-1.6767-.9276 0-1.6756.7545-1.6756 1.6767zM46.9104 24.7976c0 .9282.748 1.6768 1.6756 1.6768.9216 0 1.6756-.7486 1.6756-1.6768 0-.9222-.7481-1.6767-1.6756-1.6767-.9276 0-1.6756.7545-1.6756 1.6767zM46.9104 13.2401c0 .9222.748 1.6768 1.6756 1.6768.9215 0 1.6756-.7486 1.6756-1.6768s-.7481-1.6767-1.6756-1.6767c-.9276 0-1.6756.7485-1.6756 1.6767zM46.9104 1.67695c0 .9222.748 1.67669 1.6756 1.67669.9215 0 1.6756-.7485 1.6756-1.67669 0-.922195-.7481-1.676752-1.6756-1.676752-.9276 0-1.6756.748568-1.6756 1.676752zM0 105.323C0 106.245.748038 107 1.67559 107c.92157 0 1.67558-.749 1.67558-1.677s-.74802-1.677-1.67558-1.677C.748038 103.646 0 104.395 0 105.323zM0 93.7598c0 .9282.748038 1.6767 1.67559 1.6767.92157 0 1.67558-.7485 1.67558-1.6767 0-.9222-.74802-1.6767-1.67558-1.6767C.748038 92.0831 0 92.8376 0 93.7598zM0 82.1963c0 .9282.748038 1.6767 1.67559 1.6767.92157 0 1.67558-.7485 1.67558-1.6767 0-.9222-.74802-1.6768-1.67558-1.6768C.748038 80.5195 0 81.2741 0 82.1963zM0 70.6388c0 .9222.748038 1.6768 1.67559 1.6768.92157 0 1.67558-.7486 1.67557-1.6768 0-.9282-.74801-1.6767-1.67557-1.6767C.748038 68.9621 0 69.7106 0 70.6388zM3.35117 59.0756c0-.9222-.74802-1.6767-1.67558-1.6767C.754022 57.3989 0 58.1474 0 59.0756c0 .9222.748038 1.6767 1.67559 1.6767.92157-.006 1.67558-.7545 1.67558-1.6767zM9.38281 105.323c0 .922.74809 1.677 1.67559 1.677.9276 0 1.6756-.749 1.6756-1.677s-.748-1.677-1.6756-1.677c-.9275 0-1.67559.749-1.67559 1.677zM9.38281 93.7598c0 .9282.74809 1.6767 1.67559 1.6767.9276 0 1.6756-.7485 1.6756-1.6767 0-.9222-.748-1.6767-1.6756-1.6767-.9275 0-1.67559.7545-1.67559 1.6767zM9.38281 82.1963c0 .9282.74809 1.6767 1.67559 1.6767.9276 0 1.6756-.7485 1.6756-1.6767 0-.9222-.748-1.6768-1.6756-1.6768-.9275 0-1.67559.7546-1.67559 1.6768zM9.38281 70.6388c0 .9222.74809 1.6768 1.67559 1.6768.9276 0 1.6756-.7486 1.6756-1.6768s-.748-1.6767-1.6756-1.6767c-.9275 0-1.67559.7485-1.67559 1.6767zM9.38281 59.0756c0 .9222.74809 1.6767 1.67559 1.6767.9276 0 1.6756-.7485 1.6756-1.6767 0-.9222-.748-1.6767-1.6756-1.6767-.9275 0-1.67559.7485-1.67559 1.6767zM18.7662 105.323c0 .922.7481 1.677 1.6756 1.677.9276 0 1.6756-.749 1.6756-1.677s-.748-1.677-1.6756-1.677c-.9275 0-1.6756.749-1.6756 1.677zM18.7662 93.7598c0 .9282.7481 1.6767 1.6756 1.6767.9276 0 1.6756-.7485 1.6756-1.6767 0-.9222-.748-1.6767-1.6756-1.6767-.9275 0-1.6756.7545-1.6756 1.6767zM18.7662 82.1963c0 .9282.7481 1.6767 1.6756 1.6767.9276 0 1.6756-.7485 1.6756-1.6767 0-.9222-.748-1.6768-1.6756-1.6768-.9275 0-1.6756.7546-1.6756 1.6768zM18.7662 70.6388c0 .9222.7481 1.6768 1.6756 1.6768.9276 0 1.6756-.7486 1.6756-1.6768s-.748-1.6767-1.6756-1.6767c-.9275 0-1.6756.7485-1.6756 1.6767zM18.7662 59.0756c0 .9222.7481 1.6767 1.6756 1.6767.9276 0 1.6756-.7485 1.6756-1.6767 0-.9222-.748-1.6767-1.6756-1.6767-.9275 0-1.6756.7485-1.6756 1.6767zM28.1504 105.323c0 .922.748 1.677 1.6756 1.677.9215 0 1.6756-.749 1.6756-1.677s-.7481-1.677-1.6756-1.677c-.9276 0-1.6756.749-1.6756 1.677zM28.1504 93.7598c0 .9282.748 1.6767 1.6756 1.6767.9215 0 1.6756-.7485 1.6756-1.6767 0-.9222-.7481-1.6767-1.6756-1.6767-.9276 0-1.6756.7545-1.6756 1.6767zM28.1504 82.1963c0 .9282.748 1.6767 1.6756 1.6767.9215 0 1.6756-.7485 1.6756-1.6767 0-.9222-.7481-1.6768-1.6756-1.6768-.9276 0-1.6756.7546-1.6756 1.6768zM28.1504 70.6388c0 .9222.748 1.6768 1.6756 1.6768.9215 0 1.6756-.7486 1.6756-1.6768s-.7481-1.6767-1.6756-1.6767c-.9276 0-1.6756.7485-1.6756 1.6767zM28.1504 59.0756c0 .9222.748 1.6767 1.6756 1.6767.9215 0 1.6756-.7485 1.6756-1.6767 0-.9222-.7481-1.6767-1.6756-1.6767-.9276 0-1.6756.7485-1.6756 1.6767zM37.527 105.323c0 .922.748 1.677 1.6756 1.677.9215 0 1.6755-.749 1.6755-1.677s-.748-1.677-1.6755-1.677c-.9216 0-1.6756.749-1.6756 1.677zM37.527 93.7598c0 .9282.748 1.6767 1.6756 1.6767.9215 0 1.6755-.7485 1.6755-1.6767 0-.9222-.748-1.6767-1.6755-1.6767-.9216 0-1.6756.7545-1.6756 1.6767zM37.527 82.1963c0 .9282.748 1.6767 1.6756 1.6767.9215 0 1.6755-.7485 1.6755-1.6767 0-.9222-.748-1.6768-1.6755-1.6768-.9216 0-1.6756.7546-1.6756 1.6768zM37.527 70.6388c0 .9222.748 1.6768 1.6756 1.6768.9215 0 1.6755-.7486 1.6755-1.6768s-.748-1.6767-1.6755-1.6767c-.9216 0-1.6756.7485-1.6756 1.6767zM37.527 59.0756c0 .9222.748 1.6767 1.6756 1.6767.9215 0 1.6755-.7485 1.6755-1.6767 0-.9222-.748-1.6767-1.6755-1.6767-.9216 0-1.6756.7485-1.6756 1.6767zM46.9104 105.323c0 .922.748 1.677 1.6756 1.677.9215 0 1.6756-.749 1.6756-1.677s-.7481-1.677-1.6756-1.677c-.9276 0-1.6756.749-1.6756 1.677zM46.9104 93.7598c0 .9282.748 1.6767 1.6756 1.6767.9215 0 1.6756-.7485 1.6756-1.6767 0-.9222-.7481-1.6767-1.6756-1.6767-.9276 0-1.6756.7545-1.6756 1.6767zM46.9104 82.1963c0 .9282.748 1.6767 1.6756 1.6767.9216 0 1.6756-.7485 1.6756-1.6767 0-.9222-.7481-1.6768-1.6756-1.6768-.9276 0-1.6756.7546-1.6756 1.6768zM46.9104 70.6388c0 .9222.748 1.6768 1.6756 1.6768.9216 0 1.6756-.7486 1.6756-1.6768s-.7481-1.6767-1.6756-1.6767c-.9276 0-1.6756.7485-1.6756 1.6767zM46.9104 59.0756c0 .9222.748 1.6767 1.6756 1.6767.9216 0 1.6756-.7485 1.6756-1.6767 0-.9222-.7481-1.6767-1.6756-1.6767-.9276 0-1.6756.7485-1.6756 1.6767z"/>
  </g>
  <defs>
    <clipPath id="clip0">
      <path fill="#fff" transform="rotate(-90 53.5 53.5)" d="M0 0h107v54H0z"/>
    </clipPath>
  </defs>
</svg>
