<?xml version="1.0" encoding="UTF-8" ?>
<svg width="225" height="108" fill="none" xmlns="http://www.w3.org/2000/svg">
  <g clip-path="url(#clip0)" fill="#B5CD25">
    <path d="M113.5 48.4246c0 .9222.748 1.6768 1.676 1.6768.921 0 1.675-.7486 1.675-1.6768s-.748-1.6767-1.675-1.6767c-.928 0-1.676.7485-1.676 1.6767zM113.5 36.8611c0 .9282.748 1.6768 1.676 1.6768.921 0 1.675-.7486 1.675-1.6768 0-.9222-.748-1.6767-1.675-1.6767-.928 0-1.676.7545-1.676 1.6767zM113.5 25.2976c0 .9282.748 1.6768 1.676 1.6768.921 0 1.675-.7486 1.675-1.6768 0-.9222-.748-1.6767-1.675-1.6767-.928 0-1.676.7545-1.676 1.6767zM113.5 13.7401c0 .9222.748 1.6768 1.676 1.6768.921 0 1.675-.7486 1.675-1.6768s-.748-1.6767-1.675-1.6767c-.928 0-1.676.7485-1.676 1.6767zM116.851 2.17703c0-.92221-.748-1.67677-1.675-1.676771-.922 0-1.676.748571-1.676 1.676771 0 .92221.748 1.6767 1.676 1.6767.921-.00599 1.675-.75449 1.675-1.6767zM122.883 48.4246c0 .9222.748 1.6768 1.675 1.6768.928 0 1.676-.7486 1.676-1.6768s-.748-1.6767-1.676-1.6767c-.927 0-1.675.7485-1.675 1.6767zM122.883 36.8611c0 .9282.748 1.6768 1.675 1.6768.928 0 1.676-.7486 1.676-1.6768 0-.9222-.748-1.6767-1.676-1.6767-.927 0-1.675.7545-1.675 1.6767zM122.883 25.2976c0 .9282.748 1.6768 1.675 1.6768.928 0 1.676-.7486 1.676-1.6768 0-.9222-.748-1.6767-1.676-1.6767-.927 0-1.675.7545-1.675 1.6767zM122.883 13.7401c0 .9222.748 1.6768 1.675 1.6768.928 0 1.676-.7486 1.676-1.6768 0-.9281-.748-1.6766-1.676-1.6766-.927 0-1.675.7485-1.675 1.6766zM122.883 2.17703c0 .92221.748 1.6767 1.675 1.6767.928 0 1.676-.7485 1.676-1.6767 0-.92221-.748-1.67677-1.676-1.676771-.927 0-1.675.748571-1.675 1.676771zM132.266 48.4246c0 .9222.748 1.6768 1.676 1.6768.927 0 1.675-.7486 1.675-1.6768s-.748-1.6767-1.675-1.6767c-.928 0-1.676.7485-1.676 1.6767zM132.266 36.8611c0 .9282.748 1.6768 1.676 1.6768.927 0 1.675-.7486 1.675-1.6768 0-.9222-.748-1.6767-1.675-1.6767-.928 0-1.676.7545-1.676 1.6767zM132.266 25.2976c0 .9282.748 1.6768 1.676 1.6768.927 0 1.675-.7486 1.675-1.6768 0-.9222-.748-1.6767-1.675-1.6767-.928 0-1.676.7545-1.676 1.6767zM132.266 13.7401c0 .9222.748 1.6768 1.676 1.6768.927 0 1.675-.7486 1.675-1.6768 0-.9281-.748-1.6766-1.675-1.6766-.928 0-1.676.7485-1.676 1.6766zM132.266 2.17703c0 .92221.748 1.6767 1.676 1.6767.927 0 1.675-.7485 1.675-1.6767 0-.92221-.748-1.67677-1.675-1.676771-.928 0-1.676.748571-1.676 1.676771zM141.65 48.4246c0 .9222.748 1.6768 1.676 1.6768.922 0 1.676-.7486 1.676-1.6768s-.748-1.6767-1.676-1.6767c-.928 0-1.676.7485-1.676 1.6767zM141.65 36.8611c0 .9282.748 1.6768 1.676 1.6768.922 0 1.676-.7486 1.676-1.6768 0-.9222-.748-1.6767-1.676-1.6767-.928 0-1.676.7545-1.676 1.6767zM141.65 25.2976c0 .9282.748 1.6768 1.676 1.6768.922 0 1.676-.7486 1.676-1.6768 0-.9222-.748-1.6767-1.676-1.6767-.928 0-1.676.7545-1.676 1.6767zM141.65 13.7401c0 .9222.748 1.6768 1.676 1.6768.922 0 1.676-.7486 1.676-1.6768 0-.9281-.748-1.6766-1.676-1.6766-.928 0-1.676.7485-1.676 1.6766zM141.65 2.17703c0 .92221.748 1.6767 1.676 1.6767.922 0 1.676-.7485 1.676-1.6767 0-.92221-.748-1.67677-1.676-1.676771-.928 0-1.676.748571-1.676 1.676771zM151.027 48.4246c0 .9222.748 1.6768 1.676 1.6768.921 0 1.675-.7486 1.675-1.6768s-.748-1.6767-1.675-1.6767c-.922 0-1.676.7485-1.676 1.6767zM151.027 36.8612c0 .9281.748 1.6767 1.676 1.6767.921 0 1.675-.7486 1.675-1.6767 0-.9222-.748-1.6767-1.675-1.6767-.922 0-1.676.7545-1.676 1.6767zM151.027 25.2976c0 .9282.748 1.6768 1.676 1.6768.921 0 1.675-.7486 1.675-1.6768 0-.9222-.748-1.6767-1.675-1.6767-.922 0-1.676.7545-1.676 1.6767zM151.027 13.7401c0 .9222.748 1.6768 1.676 1.6768.921 0 1.675-.7486 1.675-1.6768 0-.9281-.748-1.6766-1.675-1.6766-.922 0-1.676.7485-1.676 1.6766zM151.027 2.17706c0 .92221.748 1.6767 1.676 1.6767.921 0 1.675-.7485 1.675-1.6767 0-.92221-.748-1.67677-1.675-1.67677-.922 0-1.676.74857-1.676 1.67677zM160.41 48.4246c0 .9222.748 1.6768 1.676 1.6768.921 0 1.676-.7486 1.676-1.6768s-.749-1.6768-1.676-1.6768c-.928 0-1.676.7486-1.676 1.6768zM160.41 36.8612c0 .9281.748 1.6767 1.676 1.6767.921 0 1.676-.7486 1.676-1.6767 0-.9222-.749-1.6767-1.676-1.6767-.928 0-1.676.7545-1.676 1.6767zM160.41 25.2976c0 .9282.748 1.6768 1.676 1.6768.921 0 1.676-.7486 1.676-1.6768 0-.9222-.749-1.6767-1.676-1.6767-.928 0-1.676.7545-1.676 1.6767zM160.41 13.7401c0 .9222.748 1.6768 1.676 1.6768.921 0 1.676-.7486 1.676-1.6768 0-.9281-.749-1.6766-1.676-1.6766-.928 0-1.676.7485-1.676 1.6766zM160.41 2.17708c0 .9222.748 1.67668 1.676 1.67668.921 0 1.676-.74849 1.676-1.67668 0-.9222-.749-1.676759-1.676-1.676759-.928 0-1.676.748569-1.676 1.676759zM113.5 105.823c0 .922.748 1.677 1.676 1.677.921 0 1.675-.749 1.675-1.677s-.748-1.677-1.675-1.677c-.928 0-1.676.749-1.676 1.677zM113.5 94.2598c0 .9282.748 1.6768 1.676 1.6768.921 0 1.675-.7486 1.675-1.6768 0-.9222-.748-1.6767-1.675-1.6767-.928 0-1.676.7545-1.676 1.6767zM113.5 82.6963c0 .9282.748 1.6767 1.676 1.6767.921 0 1.675-.7485 1.675-1.6767 0-.9222-.748-1.6768-1.675-1.6768-.928 0-1.676.7546-1.676 1.6768zM113.5 71.1388c0 .9222.748 1.6767 1.676 1.6767.921 0 1.675-.7486 1.675-1.6767 0-.9282-.748-1.6767-1.675-1.6767-.928 0-1.676.7485-1.676 1.6767zM116.851 59.5757c0-.9222-.748-1.6768-1.675-1.6768-.922 0-1.676.7486-1.676 1.6768 0 .9222.748 1.6767 1.676 1.6767.921-.006 1.675-.7545 1.675-1.6767zM122.883 105.823c0 .922.748 1.677 1.675 1.677.928 0 1.676-.749 1.676-1.677s-.748-1.677-1.676-1.677c-.927 0-1.675.749-1.675 1.677zM122.883 94.2598c0 .9282.748 1.6768 1.675 1.6768.928 0 1.676-.7486 1.676-1.6768 0-.9222-.748-1.6767-1.676-1.6767-.927 0-1.675.7545-1.675 1.6767zM122.883 82.6963c0 .9282.748 1.6767 1.675 1.6767.928 0 1.676-.7485 1.676-1.6767 0-.9222-.748-1.6768-1.676-1.6768-.927 0-1.675.7546-1.675 1.6768zM122.883 71.1388c0 .9222.748 1.6767 1.675 1.6767.928 0 1.676-.7486 1.676-1.6767 0-.9282-.748-1.6767-1.676-1.6767-.927 0-1.675.7485-1.675 1.6767zM122.883 59.5757c0 .9222.748 1.6767 1.675 1.6767.928 0 1.676-.7485 1.676-1.6767 0-.9222-.748-1.6768-1.676-1.6768-.927 0-1.675.7486-1.675 1.6768zM132.266 105.823c0 .922.748 1.677 1.676 1.677.927 0 1.675-.749 1.675-1.677s-.748-1.677-1.675-1.677c-.928 0-1.676.749-1.676 1.677zM132.266 94.2598c0 .9282.748 1.6768 1.676 1.6768.927 0 1.675-.7486 1.675-1.6768 0-.9222-.748-1.6767-1.675-1.6767-.928 0-1.676.7545-1.676 1.6767zM132.266 82.6963c0 .9282.748 1.6768 1.676 1.6768.927 0 1.675-.7486 1.675-1.6768 0-.9222-.748-1.6768-1.675-1.6768-.928 0-1.676.7546-1.676 1.6768zM132.266 71.1388c0 .9222.748 1.6767 1.676 1.6767.927 0 1.675-.7486 1.675-1.6767 0-.9282-.748-1.6767-1.675-1.6767-.928 0-1.676.7485-1.676 1.6767zM132.266 59.5757c0 .9222.748 1.6767 1.676 1.6767.927 0 1.675-.7485 1.675-1.6767 0-.9222-.748-1.6768-1.675-1.6768-.928 0-1.676.7486-1.676 1.6768zM141.65 105.823c0 .922.748 1.677 1.676 1.677.922 0 1.676-.749 1.676-1.677s-.748-1.677-1.676-1.677c-.928 0-1.676.749-1.676 1.677zM141.65 94.2598c0 .9282.748 1.6768 1.676 1.6768.922 0 1.676-.7486 1.676-1.6768 0-.9222-.748-1.6767-1.676-1.6767-.928 0-1.676.7545-1.676 1.6767zM141.65 82.6963c0 .9282.748 1.6768 1.676 1.6768.922 0 1.676-.7486 1.676-1.6768 0-.9222-.748-1.6768-1.676-1.6768-.928 0-1.676.7546-1.676 1.6768zM141.65 71.1388c0 .9222.748 1.6767 1.676 1.6767.922 0 1.676-.7485 1.676-1.6767s-.748-1.6767-1.676-1.6767c-.928 0-1.676.7485-1.676 1.6767zM141.65 59.5757c0 .9222.748 1.6767 1.676 1.6767.922 0 1.676-.7485 1.676-1.6767 0-.9222-.748-1.6768-1.676-1.6768-.928 0-1.676.7486-1.676 1.6768zM151.027 105.823c0 .922.748 1.677 1.676 1.677.921 0 1.675-.749 1.675-1.677s-.748-1.677-1.675-1.677c-.922 0-1.676.749-1.676 1.677zM151.027 94.2598c0 .9282.748 1.6768 1.676 1.6768.921 0 1.675-.7486 1.675-1.6768 0-.9222-.748-1.6767-1.675-1.6767-.922 0-1.676.7545-1.676 1.6767zM151.027 82.6963c0 .9282.748 1.6768 1.676 1.6768.921 0 1.675-.7486 1.675-1.6768 0-.9222-.748-1.6768-1.675-1.6768-.922 0-1.676.7546-1.676 1.6768zM151.027 71.1388c0 .9222.748 1.6767 1.676 1.6767.921 0 1.675-.7485 1.675-1.6767s-.748-1.6767-1.675-1.6767c-.922 0-1.676.7485-1.676 1.6767zM151.027 59.5757c0 .9222.748 1.6767 1.676 1.6767.921 0 1.675-.7485 1.675-1.6767 0-.9222-.748-1.6768-1.675-1.6768-.922 0-1.676.7486-1.676 1.6768zM160.41 105.823c0 .922.748 1.677 1.676 1.677.921 0 1.676-.749 1.676-1.677s-.749-1.677-1.676-1.677c-.928 0-1.676.749-1.676 1.677zM160.41 94.2598c0 .9282.748 1.6768 1.676 1.6768.921 0 1.676-.7486 1.676-1.6768 0-.9222-.749-1.6767-1.676-1.6767-.928 0-1.676.7545-1.676 1.6767zM160.41 82.6963c0 .9282.748 1.6768 1.676 1.6768.921 0 1.676-.7486 1.676-1.6768 0-.9222-.749-1.6768-1.676-1.6768-.928 0-1.676.7546-1.676 1.6768zM160.41 71.1388c0 .9222.748 1.6767 1.676 1.6767.921 0 1.676-.7485 1.676-1.6767s-.749-1.6767-1.676-1.6767c-.928 0-1.676.7485-1.676 1.6767zM160.41 59.5757c0 .9222.748 1.6767 1.676 1.6767.921 0 1.676-.7485 1.676-1.6767 0-.9222-.749-1.6768-1.676-1.6768-.928 0-1.676.7486-1.676 1.6768z"/>
  </g>
  <g clip-path="url(#clip1)" fill="#B5CD25">
    <path d="M170.5 48.4246c0 .9222.748 1.6768 1.676 1.6768.921 0 1.675-.7486 1.675-1.6768s-.748-1.6767-1.675-1.6767c-.928 0-1.676.7485-1.676 1.6767zM170.5 36.8612c0 .9281.748 1.6767 1.676 1.6767.921 0 1.675-.7486 1.675-1.6767 0-.9222-.748-1.6767-1.675-1.6767-.928 0-1.676.7545-1.676 1.6767zM170.5 25.2977c0 .9281.748 1.6767 1.676 1.6767.921 0 1.675-.7486 1.675-1.6767 0-.9222-.748-1.6768-1.675-1.6768-.928 0-1.676.7546-1.676 1.6768zM170.5 13.7401c0 .9222.748 1.6768 1.676 1.6768.921 0 1.675-.7486 1.675-1.6768s-.748-1.6767-1.675-1.6767c-.928 0-1.676.7485-1.676 1.6767zM173.851 2.17706c0-.92221-.748-1.67677-1.675-1.67677-.922 0-1.676.74857-1.676 1.67677 0 .92221.748 1.6767 1.676 1.6767.921-.00599 1.675-.75449 1.675-1.6767zM179.883 48.4246c0 .9222.748 1.6768 1.675 1.6768.928 0 1.676-.7486 1.676-1.6768s-.748-1.6767-1.676-1.6767c-.927 0-1.675.7485-1.675 1.6767zM179.883 36.8612c0 .9281.748 1.6767 1.675 1.6767.928 0 1.676-.7486 1.676-1.6767 0-.9222-.748-1.6767-1.676-1.6767-.927 0-1.675.7545-1.675 1.6767zM179.883 25.2977c0 .9281.748 1.6767 1.675 1.6767.928 0 1.676-.7486 1.676-1.6767 0-.9222-.748-1.6768-1.676-1.6768-.927 0-1.675.7546-1.675 1.6768zM179.883 13.7401c0 .9222.748 1.6768 1.675 1.6768.928 0 1.676-.7486 1.676-1.6768 0-.9281-.748-1.6766-1.676-1.6766-.927 0-1.675.7485-1.675 1.6766zM179.883 2.17706c0 .92221.748 1.6767 1.675 1.6767.928 0 1.676-.7485 1.676-1.6767 0-.92221-.748-1.67677-1.676-1.67677-.927 0-1.675.74857-1.675 1.67677zM189.266 48.4246c0 .9222.748 1.6768 1.676 1.6768.927 0 1.675-.7486 1.675-1.6768s-.748-1.6767-1.675-1.6767c-.928 0-1.676.7485-1.676 1.6767zM189.266 36.8612c0 .9281.748 1.6767 1.676 1.6767.927 0 1.675-.7486 1.675-1.6767 0-.9222-.748-1.6767-1.675-1.6767-.928 0-1.676.7545-1.676 1.6767zM189.266 25.2977c0 .9281.748 1.6767 1.676 1.6767.927 0 1.675-.7486 1.675-1.6767 0-.9222-.748-1.6768-1.675-1.6768-.928 0-1.676.7546-1.676 1.6768zM189.266 13.7401c0 .9222.748 1.6768 1.676 1.6768.927 0 1.675-.7486 1.675-1.6768 0-.9281-.748-1.6766-1.675-1.6766-.928 0-1.676.7485-1.676 1.6766zM189.266 2.17706c0 .92221.748 1.6767 1.676 1.6767.927 0 1.675-.7485 1.675-1.6767 0-.92221-.748-1.67677-1.675-1.67677-.928 0-1.676.74857-1.676 1.67677zM198.65 48.4246c0 .9222.748 1.6768 1.676 1.6768.922 0 1.676-.7486 1.676-1.6768s-.748-1.6767-1.676-1.6767c-.928 0-1.676.7485-1.676 1.6767zM198.65 36.8612c0 .9281.748 1.6767 1.676 1.6767.922 0 1.676-.7486 1.676-1.6767 0-.9222-.748-1.6767-1.676-1.6767-.928 0-1.676.7545-1.676 1.6767zM198.65 25.2977c0 .9281.748 1.6767 1.676 1.6767.922 0 1.676-.7486 1.676-1.6767 0-.9222-.748-1.6768-1.676-1.6768-.928 0-1.676.7546-1.676 1.6768zM198.65 13.7401c0 .9222.748 1.6768 1.676 1.6768.922 0 1.676-.7486 1.676-1.6768 0-.9281-.748-1.6766-1.676-1.6766-.928 0-1.676.7485-1.676 1.6766zM198.65 2.17706c0 .92221.748 1.6767 1.676 1.6767.922 0 1.676-.7485 1.676-1.6767 0-.92221-.748-1.67677-1.676-1.67677-.928 0-1.676.74857-1.676 1.67677zM208.027 48.4246c0 .9222.748 1.6768 1.676 1.6768.921 0 1.675-.7486 1.675-1.6768s-.748-1.6767-1.675-1.6767c-.922 0-1.676.7485-1.676 1.6767zM208.027 36.8612c0 .9282.748 1.6767 1.676 1.6767.921 0 1.675-.7485 1.675-1.6767 0-.9222-.748-1.6767-1.675-1.6767-.922 0-1.676.7545-1.676 1.6767zM208.027 25.2977c0 .9281.748 1.6767 1.676 1.6767.921 0 1.675-.7486 1.675-1.6767 0-.9222-.748-1.6768-1.675-1.6768-.922 0-1.676.7546-1.676 1.6768zM208.027 13.7402c0 .9222.748 1.6767 1.676 1.6767.921 0 1.675-.7485 1.675-1.6767s-.748-1.6767-1.675-1.6767c-.922 0-1.676.7485-1.676 1.6767zM208.027 2.17706c0 .92221.748 1.6767 1.676 1.6767.921 0 1.675-.7485 1.675-1.6767 0-.92221-.748-1.67677-1.675-1.67677-.922 0-1.676.74857-1.676 1.67677zM217.41 48.4246c0 .9222.748 1.6768 1.676 1.6768.921 0 1.676-.7486 1.676-1.6768s-.749-1.6767-1.676-1.6767c-.928 0-1.676.7485-1.676 1.6767zM217.41 36.8612c0 .9282.748 1.6767 1.676 1.6767.921 0 1.676-.7485 1.676-1.6767 0-.9222-.749-1.6767-1.676-1.6767-.928 0-1.676.7545-1.676 1.6767zM217.41 25.2977c0 .9281.748 1.6767 1.676 1.6767.921 0 1.676-.7486 1.676-1.6767 0-.9222-.749-1.6768-1.676-1.6768-.928 0-1.676.7546-1.676 1.6768zM217.41 13.7402c0 .9222.748 1.6767 1.676 1.6767.921 0 1.676-.7485 1.676-1.6767s-.749-1.6767-1.676-1.6767c-.928 0-1.676.7485-1.676 1.6767zM217.41 2.17708c0 .9222.748 1.67668 1.676 1.67668.921 0 1.676-.74849 1.676-1.67668 0-.9222-.749-1.676759-1.676-1.676759-.928 0-1.676.748569-1.676 1.676759zM170.5 105.823c0 .922.748 1.677 1.676 1.677.921 0 1.675-.749 1.675-1.677s-.748-1.677-1.675-1.677c-.928 0-1.676.749-1.676 1.677zM170.5 94.2598c0 .9282.748 1.6768 1.676 1.6768.921 0 1.675-.7486 1.675-1.6768 0-.9222-.748-1.6767-1.675-1.6767-.928 0-1.676.7545-1.676 1.6767zM170.5 82.6963c0 .9282.748 1.6768 1.676 1.6768.921 0 1.675-.7486 1.675-1.6768 0-.9222-.748-1.6768-1.675-1.6768-.928 0-1.676.7546-1.676 1.6768zM170.5 71.1388c0 .9222.748 1.6767 1.676 1.6767.921 0 1.675-.7485 1.675-1.6767s-.748-1.6767-1.675-1.6767c-.928 0-1.676.7485-1.676 1.6767zM173.851 59.5757c0-.9222-.748-1.6768-1.675-1.6768-.922 0-1.676.7486-1.676 1.6768 0 .9222.748 1.6767 1.676 1.6767.921-.006 1.675-.7545 1.675-1.6767zM179.883 105.823c0 .922.748 1.677 1.675 1.677.928 0 1.676-.749 1.676-1.677s-.748-1.677-1.676-1.677c-.927 0-1.675.749-1.675 1.677zM179.883 94.2598c0 .9282.748 1.6768 1.675 1.6768.928 0 1.676-.7486 1.676-1.6768 0-.9222-.748-1.6767-1.676-1.6767-.927 0-1.675.7545-1.675 1.6767zM179.883 82.6963c0 .9282.748 1.6768 1.675 1.6768.928 0 1.676-.7486 1.676-1.6768 0-.9222-.748-1.6768-1.676-1.6768-.927 0-1.675.7546-1.675 1.6768zM179.883 71.1388c0 .9222.748 1.6767 1.675 1.6767.928 0 1.676-.7485 1.676-1.6767s-.748-1.6767-1.676-1.6767c-.927 0-1.675.7485-1.675 1.6767zM179.883 59.5757c0 .9222.748 1.6767 1.675 1.6767.928 0 1.676-.7485 1.676-1.6767 0-.9222-.748-1.6768-1.676-1.6768-.927 0-1.675.7486-1.675 1.6768zM189.266 105.823c0 .922.748 1.677 1.676 1.677.927 0 1.675-.749 1.675-1.677s-.748-1.676-1.675-1.676c-.928-.001-1.676.748-1.676 1.676zM189.266 94.2598c0 .9282.748 1.6768 1.676 1.6768.927 0 1.675-.7486 1.675-1.6768 0-.9222-.748-1.6767-1.675-1.6767-.928 0-1.676.7545-1.676 1.6767zM189.266 82.6963c0 .9282.748 1.6768 1.676 1.6768.927 0 1.675-.7486 1.675-1.6768 0-.9222-.748-1.6767-1.675-1.6767-.928 0-1.676.7545-1.676 1.6767zM189.266 71.1388c0 .9222.748 1.6767 1.676 1.6767.927 0 1.675-.7485 1.675-1.6767s-.748-1.6767-1.675-1.6767c-.928 0-1.676.7485-1.676 1.6767zM189.266 59.5757c0 .9222.748 1.6767 1.676 1.6767.927 0 1.675-.7485 1.675-1.6767 0-.9222-.748-1.6768-1.675-1.6768-.928 0-1.676.7486-1.676 1.6768zM198.65 105.823c0 .922.748 1.677 1.676 1.677.922 0 1.676-.749 1.676-1.677s-.748-1.677-1.676-1.677c-.928 0-1.676.749-1.676 1.677zM198.65 94.2598c0 .9282.748 1.6768 1.676 1.6768.922 0 1.676-.7486 1.676-1.6768 0-.9222-.748-1.6767-1.676-1.6767-.928 0-1.676.7545-1.676 1.6767zM198.65 82.6963c0 .9282.748 1.6768 1.676 1.6768.922 0 1.676-.7486 1.676-1.6768 0-.9222-.748-1.6767-1.676-1.6767-.928 0-1.676.7545-1.676 1.6767zM198.65 71.1388c0 .9222.748 1.6767 1.676 1.6767.922 0 1.676-.7485 1.676-1.6767s-.748-1.6767-1.676-1.6767c-.928 0-1.676.7485-1.676 1.6767zM198.65 59.5757c0 .9222.748 1.6767 1.676 1.6767.922 0 1.676-.7485 1.676-1.6767 0-.9222-.748-1.6768-1.676-1.6768-.928 0-1.676.7486-1.676 1.6768zM208.027 105.823c0 .922.748 1.677 1.676 1.677.921 0 1.675-.749 1.675-1.677s-.748-1.676-1.675-1.676c-.922 0-1.676.748-1.676 1.676zM208.027 94.2598c0 .9282.748 1.6768 1.676 1.6768.921 0 1.675-.7486 1.675-1.6768 0-.9222-.748-1.6767-1.675-1.6767-.922 0-1.676.7545-1.676 1.6767zM208.027 82.6963c0 .9282.748 1.6768 1.676 1.6768.921 0 1.675-.7486 1.675-1.6768 0-.9222-.748-1.6768-1.675-1.6768-.922 0-1.676.7546-1.676 1.6768zM208.027 71.1388c0 .9222.748 1.6767 1.676 1.6767.921 0 1.675-.7485 1.675-1.6767s-.748-1.6767-1.675-1.6767c-.922 0-1.676.7485-1.676 1.6767zM208.027 59.5757c0 .9222.748 1.6767 1.676 1.6767.921 0 1.675-.7485 1.675-1.6767 0-.9222-.748-1.6768-1.675-1.6768-.922 0-1.676.7486-1.676 1.6768zM217.41 105.823c0 .922.748 1.677 1.676 1.677.921 0 1.676-.749 1.676-1.677s-.749-1.676-1.676-1.676c-.928 0-1.676.748-1.676 1.676zM217.41 94.2598c0 .9282.748 1.6768 1.676 1.6768.921 0 1.676-.7486 1.676-1.6768 0-.9222-.749-1.6767-1.676-1.6767-.928 0-1.676.7545-1.676 1.6767zM217.41 82.6963c0 .9282.748 1.6768 1.676 1.6768.921 0 1.676-.7486 1.676-1.6768 0-.9222-.749-1.6768-1.676-1.6768-.928 0-1.676.7546-1.676 1.6768zM217.41 71.1388c0 .9222.748 1.6767 1.676 1.6767.921 0 1.676-.7485 1.676-1.6767s-.749-1.6767-1.676-1.6767c-.928 0-1.676.7485-1.676 1.6767zM217.41 59.5757c0 .9222.748 1.6767 1.676 1.6767.921 0 1.676-.7485 1.676-1.6767 0-.9222-.749-1.6768-1.676-1.6768-.928 0-1.676.7486-1.676 1.6768z"/>
  </g>
  <g clip-path="url(#clip2)" fill="#B5CD25">
    <path d="M.5 48.4246c0 .9222.74804 1.6768 1.67559 1.6768.92157 0 1.67558-.7486 1.67558-1.6768s-.74802-1.6768-1.67558-1.6768C1.24804 46.7478.5 47.4964.5 48.4246zM.5 36.8611c0 .9282.74804 1.6768 1.67559 1.6768.92157 0 1.67558-.7486 1.67558-1.6768 0-.9222-.74802-1.6767-1.67558-1.6767C1.24804 35.1844.5 35.9389.5 36.8611zM.5 25.2976c0 .9282.74804 1.6768 1.67559 1.6768.92157 0 1.67558-.7486 1.67558-1.6768 0-.9222-.74802-1.6767-1.67558-1.6767C1.24804 23.6209.5 24.3754.5 25.2976zM.5 13.7401c0 .9222.74804 1.6768 1.67559 1.6768.92157 0 1.67558-.7486 1.67558-1.6768s-.74802-1.6767-1.67558-1.6767C1.24804 12.0634.5 12.8119.5 13.7401zM3.85117 2.17703c0-.92221-.74802-1.67677-1.67558-1.676771C1.25402.500259.5 1.24883.5 2.17703c0 .92221.74804 1.6767 1.67559 1.6767.92157-.00599 1.67558-.75449 1.67558-1.6767zM9.88287 48.4246c0 .9222.74803 1.6768 1.67563 1.6768.9275 0 1.6755-.7486 1.6755-1.6768s-.748-1.6768-1.6755-1.6768c-.9276 0-1.67563.7486-1.67563 1.6768zM9.88287 36.8611c0 .9282.74803 1.6768 1.67563 1.6768.9275 0 1.6755-.7486 1.6755-1.6768 0-.9222-.748-1.6767-1.6755-1.6767-.9276 0-1.67563.7545-1.67563 1.6767zM9.88287 25.2976c0 .9282.74803 1.6768 1.67563 1.6768.9275 0 1.6755-.7486 1.6755-1.6768 0-.9222-.748-1.6767-1.6755-1.6767-.9276 0-1.67563.7545-1.67563 1.6767zM9.88287 13.7401c0 .9222.74803 1.6768 1.67563 1.6768.9275 0 1.6755-.7486 1.6755-1.6768s-.748-1.6767-1.6755-1.6767c-.9276 0-1.67563.7485-1.67563 1.6767zM9.88287 2.17703c0 .92221.74803 1.6767 1.67563 1.6767.9275 0 1.6755-.7485 1.6755-1.6767 0-.92221-.748-1.67677-1.6755-1.676771-.9276 0-1.67563.748571-1.67563 1.676771zM19.2662 48.4246c0 .9222.748 1.6768 1.6756 1.6768.9275 0 1.6755-.7486 1.6755-1.6768s-.748-1.6768-1.6755-1.6768c-.9276 0-1.6756.7486-1.6756 1.6768zM19.2662 36.8611c0 .9282.748 1.6768 1.6756 1.6768.9275 0 1.6755-.7486 1.6755-1.6768 0-.9222-.748-1.6767-1.6755-1.6767-.9276 0-1.6756.7545-1.6756 1.6767zM19.2662 25.2976c0 .9282.748 1.6768 1.6756 1.6768.9275 0 1.6755-.7486 1.6755-1.6768 0-.9222-.748-1.6767-1.6755-1.6767-.9276 0-1.6756.7545-1.6756 1.6767zM19.2662 13.7401c0 .9222.748 1.6768 1.6755 1.6768.9276 0 1.6756-.7486 1.6756-1.6768s-.748-1.6767-1.6755-1.6767c-.9276 0-1.6756.7485-1.6756 1.6767zM19.2662 2.17703c0 .92221.748 1.6767 1.6756 1.6767.9275 0 1.6755-.7485 1.6755-1.6767 0-.92221-.748-1.67677-1.6755-1.676771-.9276 0-1.6756.748571-1.6756 1.676771zM28.6504 48.4246c0 .9222.748 1.6768 1.6756 1.6768.9215 0 1.6756-.7486 1.6756-1.6768s-.7481-1.6768-1.6756-1.6768c-.9276 0-1.6756.7486-1.6756 1.6768zM28.6504 36.8611c0 .9282.748 1.6768 1.6756 1.6768.9215 0 1.6756-.7486 1.6756-1.6768 0-.9222-.7481-1.6767-1.6756-1.6767-.9276 0-1.6756.7545-1.6756 1.6767zM28.6504 25.2976c0 .9282.748 1.6768 1.6756 1.6768.9215 0 1.6756-.7486 1.6756-1.6768 0-.9222-.7481-1.6767-1.6756-1.6767-.9276 0-1.6756.7545-1.6756 1.6767zM28.6504 13.7401c0 .9222.748 1.6768 1.6756 1.6768.9215 0 1.6756-.7486 1.6756-1.6768s-.7481-1.6767-1.6756-1.6767c-.9276 0-1.6756.7485-1.6756 1.6767zM28.6504 2.17703c0 .92221.748 1.6767 1.6756 1.6767.9215 0 1.6756-.7485 1.6756-1.6767 0-.92221-.7481-1.67677-1.6756-1.676771-.9276 0-1.6756.748571-1.6756 1.676771zM38.0269 48.4246c0 .9222.7481 1.6768 1.6756 1.6768.9216 0 1.6756-.7486 1.6756-1.6768s-.748-1.6768-1.6756-1.6768c-.9216 0-1.6756.7486-1.6756 1.6768zM38.0269 36.8611c0 .9282.7481 1.6768 1.6756 1.6768.9216 0 1.6756-.7486 1.6756-1.6768 0-.9222-.748-1.6767-1.6756-1.6767-.9216 0-1.6756.7545-1.6756 1.6767zM38.0269 25.2976c0 .9282.7481 1.6768 1.6756 1.6768.9216 0 1.6756-.7486 1.6756-1.6768 0-.9222-.748-1.6767-1.6756-1.6767-.9216 0-1.6756.7545-1.6756 1.6767zM38.0269 13.7401c0 .9222.7481 1.6768 1.6756 1.6768.9216 0 1.6756-.7486 1.6756-1.6768 0-.9281-.748-1.6766-1.6756-1.6766-.9216 0-1.6756.7485-1.6756 1.6766zM38.0269 2.17703c0 .92221.7481 1.6767 1.6756 1.6767.9216 0 1.6756-.7485 1.6756-1.6767 0-.92221-.748-1.67677-1.6756-1.676771-.9216 0-1.6756.748571-1.6756 1.676771zM47.4103 48.4246c0 .9222.7481 1.6768 1.6756 1.6768.9216 0 1.6756-.7486 1.6756-1.6768s-.748-1.6768-1.6756-1.6768c-.9275 0-1.6756.7486-1.6756 1.6768zM47.4103 36.8611c0 .9282.7481 1.6768 1.6756 1.6768.9216 0 1.6756-.7486 1.6756-1.6768 0-.9222-.748-1.6767-1.6756-1.6767-.9275 0-1.6756.7545-1.6756 1.6767zM47.4103 25.2976c0 .9282.7481 1.6768 1.6756 1.6768.9216 0 1.6756-.7486 1.6756-1.6768 0-.9222-.748-1.6767-1.6756-1.6767-.9275 0-1.6756.7545-1.6756 1.6767zM47.4103 13.7401c0 .9222.7481 1.6768 1.6756 1.6768.9216 0 1.6756-.7486 1.6756-1.6768 0-.9281-.748-1.6766-1.6756-1.6766-.9275 0-1.6756.7485-1.6756 1.6766zM47.4103 2.17705c0 .9222.7481 1.67668 1.6756 1.67668.9216 0 1.6756-.7485 1.6756-1.67668 0-.9222-.748-1.67676-1.6756-1.67676-.9275 0-1.6756.74857-1.6756 1.67676zM.5 105.823c0 .922.74804 1.677 1.67559 1.677.92157 0 1.67558-.749 1.67558-1.677s-.74802-1.677-1.67558-1.677c-.92755 0-1.67559.749-1.67559 1.677zM.5 94.2598c0 .9282.74804 1.6767 1.67559 1.6767.92157 0 1.67558-.7485 1.67558-1.6767 0-.9222-.74802-1.6767-1.67558-1.6767C1.24804 92.5831.5 93.3376.5 94.2598zM.5 82.6963c0 .9282.74804 1.6767 1.67559 1.6767.92157 0 1.67558-.7485 1.67558-1.6767 0-.9222-.74802-1.6768-1.67558-1.6768C1.24804 81.0195.5 81.7741.5 82.6963zM.5 71.1387c0 .9222.74804 1.6768 1.67559 1.6768.92157 0 1.67558-.7486 1.67558-1.6768s-.74802-1.6767-1.67558-1.6767C1.24804 69.462.5 70.2105.5 71.1387zM3.85117 59.5757c0-.9222-.74802-1.6768-1.67558-1.6768C1.25402 57.8989.5 58.6475.5 59.5757c0 .9222.74804 1.6767 1.67559 1.6767.92157-.006 1.67558-.7545 1.67558-1.6767zM9.88287 105.823c0 .922.74803 1.677 1.67563 1.677.9275 0 1.6755-.749 1.6755-1.677s-.748-1.677-1.6755-1.677c-.9276 0-1.67563.749-1.67563 1.677zM9.88287 94.2598c0 .9282.74803 1.6767 1.67563 1.6767.9275 0 1.6755-.7485 1.6755-1.6767 0-.9222-.748-1.6767-1.6755-1.6767-.9276 0-1.67563.7545-1.67563 1.6767zM9.88287 82.6963c0 .9282.74803 1.6767 1.67563 1.6767.9275 0 1.6755-.7485 1.6755-1.6767 0-.9222-.748-1.6768-1.6755-1.6768-.9276 0-1.67563.7546-1.67563 1.6768zM9.88287 71.1387c0 .9222.74803 1.6768 1.67563 1.6768.9275 0 1.6755-.7486 1.6755-1.6768s-.748-1.6767-1.6755-1.6767c-.9276 0-1.67563.7485-1.67563 1.6767zM9.88287 59.5757c0 .9222.74803 1.6767 1.67563 1.6767.9275 0 1.6755-.7485 1.6755-1.6767 0-.9222-.748-1.6768-1.6755-1.6768-.9276 0-1.67563.7486-1.67563 1.6768zM19.2662 105.823c0 .922.748 1.677 1.6755 1.677.9276 0 1.6756-.749 1.6756-1.677s-.748-1.677-1.6756-1.677c-.9275 0-1.6755.749-1.6755 1.677zM19.2662 94.2598c0 .9282.748 1.6767 1.6755 1.6767.9276 0 1.6756-.7485 1.6756-1.6767 0-.9222-.748-1.6767-1.6756-1.6767-.9275 0-1.6755.7545-1.6755 1.6767zM19.2662 82.6963c0 .9282.748 1.6767 1.6755 1.6767.9276 0 1.6756-.7485 1.6756-1.6767 0-.9222-.748-1.6768-1.6756-1.6768-.9275 0-1.6755.7546-1.6755 1.6768zM19.2662 71.1387c0 .9222.748 1.6768 1.6755 1.6768.9276 0 1.6756-.7486 1.6756-1.6768s-.748-1.6767-1.6756-1.6767c-.9275 0-1.6755.7485-1.6755 1.6767zM19.2662 59.5757c0 .9222.748 1.6767 1.6755 1.6767.9276 0 1.6756-.7485 1.6756-1.6767 0-.9222-.748-1.6768-1.6755-1.6768-.9276 0-1.6756.7486-1.6756 1.6768zM28.6504 105.823c0 .922.748 1.677 1.6756 1.677.9215 0 1.6756-.749 1.6756-1.677s-.7481-1.677-1.6756-1.677c-.9276 0-1.6756.749-1.6756 1.677zM28.6504 94.2598c0 .9282.748 1.6767 1.6756 1.6767.9215 0 1.6756-.7485 1.6756-1.6767 0-.9222-.7481-1.6767-1.6756-1.6767-.9276 0-1.6756.7545-1.6756 1.6767zM28.6504 82.6963c0 .9282.748 1.6767 1.6756 1.6767.9215 0 1.6756-.7485 1.6756-1.6767 0-.9222-.7481-1.6768-1.6756-1.6768-.9276 0-1.6756.7546-1.6756 1.6768zM28.6504 71.1387c0 .9222.748 1.6768 1.6756 1.6768.9215 0 1.6756-.7486 1.6756-1.6768 0-.9281-.7481-1.6766-1.6756-1.6766-.9276 0-1.6756.7485-1.6756 1.6766zM28.6504 59.5757c0 .9222.748 1.6767 1.6756 1.6767.9215 0 1.6756-.7485 1.6756-1.6767 0-.9222-.7481-1.6768-1.6756-1.6768-.9276 0-1.6756.7486-1.6756 1.6768zM38.0269 105.823c0 .922.7481 1.677 1.6756 1.677.9216 0 1.6756-.749 1.6756-1.677s-.748-1.677-1.6756-1.677c-.9216 0-1.6756.749-1.6756 1.677zM38.0269 94.2598c0 .9282.7481 1.6768 1.6756 1.6768.9216 0 1.6756-.7486 1.6756-1.6768 0-.9222-.748-1.6767-1.6756-1.6767-.9216 0-1.6756.7545-1.6756 1.6767zM38.0269 82.6963c0 .9282.7481 1.6767 1.6756 1.6767.9216 0 1.6756-.7485 1.6756-1.6767 0-.9222-.748-1.6768-1.6756-1.6768-.9216 0-1.6756.7546-1.6756 1.6768zM38.0269 71.1387c0 .9222.7481 1.6768 1.6756 1.6768.9216 0 1.6756-.7486 1.6756-1.6768 0-.9281-.748-1.6766-1.6756-1.6766-.9216 0-1.6756.7485-1.6756 1.6766zM38.027 59.5757c0 .9222.748 1.6767 1.6756 1.6767.9215 0 1.6755-.7485 1.6755-1.6767 0-.9222-.748-1.6768-1.6755-1.6768-.9216 0-1.6756.7486-1.6756 1.6768zM47.4103 105.823c0 .922.7481 1.677 1.6756 1.677.9216 0 1.6756-.749 1.6756-1.677s-.748-1.677-1.6756-1.677c-.9275 0-1.6756.749-1.6756 1.677zM47.4103 94.2598c0 .9282.7481 1.6768 1.6756 1.6768.9216 0 1.6756-.7486 1.6756-1.6768 0-.9222-.748-1.6767-1.6756-1.6767-.9275 0-1.6756.7545-1.6756 1.6767zM47.4103 82.6963c0 .9282.7481 1.6767 1.6756 1.6767.9216 0 1.6756-.7485 1.6756-1.6767 0-.9222-.748-1.6768-1.6756-1.6768-.9275 0-1.6756.7546-1.6756 1.6768zM47.4103 71.1387c0 .9222.7481 1.6768 1.6756 1.6768.9216 0 1.6756-.7486 1.6756-1.6768 0-.9281-.748-1.6766-1.6756-1.6766-.9275 0-1.6756.7485-1.6756 1.6766zM47.4103 59.5757c0 .9222.7481 1.6767 1.6756 1.6767.9216 0 1.6756-.7485 1.6756-1.6767 0-.9222-.748-1.6768-1.6756-1.6768-.9275 0-1.6756.7486-1.6756 1.6768z"/>
  </g>
  <g clip-path="url(#clip3)" fill="#B5CD25">
    <path d="M57.5 48.4246c0 .9222.748 1.6768 1.6756 1.6768.9216 0 1.6756-.7486 1.6756-1.6768s-.7481-1.6767-1.6756-1.6767c-.9276 0-1.6756.7485-1.6756 1.6767zM57.5 36.8611c0 .9282.748 1.6768 1.6756 1.6768.9216 0 1.6756-.7486 1.6756-1.6768 0-.9222-.7481-1.6767-1.6756-1.6767-.9276 0-1.6756.7545-1.6756 1.6767zM57.5 25.2976c0 .9282.748 1.6768 1.6756 1.6768.9216 0 1.6756-.7486 1.6756-1.6768 0-.9222-.7481-1.6767-1.6756-1.6767-.9276 0-1.6756.7545-1.6756 1.6767zM57.5 13.7401c0 .9222.748 1.6768 1.6756 1.6768.9216 0 1.6756-.7486 1.6756-1.6768s-.7481-1.6767-1.6756-1.6767c-.9276 0-1.6756.7485-1.6756 1.6767zM60.8512 2.17703c0-.92221-.7481-1.67677-1.6756-1.676771-.9216 0-1.6756.748571-1.6756 1.676771 0 .92221.748 1.6767 1.6756 1.6767.9216-.00599 1.6756-.75449 1.6756-1.6767zM66.8829 48.4246c0 .9222.748 1.6768 1.6756 1.6768.9275 0 1.6755-.7486 1.6755-1.6768s-.748-1.6767-1.6755-1.6767c-.9276 0-1.6756.7485-1.6756 1.6767zM66.8829 36.8611c0 .9282.748 1.6768 1.6756 1.6768.9275 0 1.6755-.7486 1.6755-1.6768 0-.9222-.748-1.6767-1.6755-1.6767-.9276 0-1.6756.7545-1.6756 1.6767zM66.8829 25.2976c0 .9282.748 1.6768 1.6756 1.6768.9275 0 1.6755-.7486 1.6755-1.6768 0-.9222-.748-1.6767-1.6755-1.6767-.9276 0-1.6756.7545-1.6756 1.6767zM66.8829 13.7401c0 .9222.748 1.6768 1.6756 1.6768.9275 0 1.6755-.7486 1.6755-1.6768 0-.9281-.748-1.6766-1.6755-1.6766-.9276 0-1.6756.7485-1.6756 1.6766zM66.8829 2.17703c0 .92221.748 1.6767 1.6756 1.6767.9275 0 1.6755-.7485 1.6755-1.6767 0-.92221-.748-1.67677-1.6755-1.676771-.9276 0-1.6756.748571-1.6756 1.676771zM76.2662 48.4246c0 .9222.748 1.6768 1.6756 1.6768.9275 0 1.6755-.7486 1.6755-1.6768s-.748-1.6767-1.6755-1.6767c-.9276 0-1.6756.7485-1.6756 1.6767zM76.2662 36.8611c0 .9282.748 1.6768 1.6756 1.6768.9275 0 1.6755-.7486 1.6755-1.6768 0-.9222-.748-1.6767-1.6755-1.6767-.9276 0-1.6756.7545-1.6756 1.6767zM76.2662 25.2976c0 .9282.748 1.6768 1.6756 1.6768.9275 0 1.6755-.7486 1.6755-1.6768 0-.9222-.748-1.6767-1.6755-1.6767-.9276 0-1.6756.7545-1.6756 1.6767zM76.2662 13.7401c0 .9222.748 1.6768 1.6755 1.6768.9276 0 1.6756-.7486 1.6756-1.6768 0-.9281-.748-1.6766-1.6755-1.6766-.9276 0-1.6756.7485-1.6756 1.6766zM76.2662 2.17703c0 .92221.748 1.6767 1.6756 1.6767.9275 0 1.6755-.7485 1.6755-1.6767 0-.92221-.748-1.67677-1.6755-1.676771-.9276 0-1.6756.748571-1.6756 1.676771zM85.6504 48.4246c0 .9222.748 1.6768 1.6756 1.6768.9215 0 1.6756-.7486 1.6756-1.6768s-.7481-1.6767-1.6756-1.6767c-.9276 0-1.6756.7485-1.6756 1.6767zM85.6504 36.8611c0 .9282.748 1.6768 1.6756 1.6768.9215 0 1.6756-.7486 1.6756-1.6768 0-.9222-.7481-1.6767-1.6756-1.6767-.9276 0-1.6756.7545-1.6756 1.6767zM85.6504 25.2976c0 .9282.748 1.6768 1.6756 1.6768.9215 0 1.6756-.7486 1.6756-1.6768 0-.9222-.7481-1.6767-1.6756-1.6767-.9276 0-1.6756.7545-1.6756 1.6767zM85.6504 13.7401c0 .9222.748 1.6768 1.6756 1.6768.9215 0 1.6756-.7486 1.6756-1.6768 0-.9281-.7481-1.6766-1.6756-1.6766-.9276 0-1.6756.7485-1.6756 1.6766zM85.6504 2.17703c0 .92221.748 1.6767 1.6756 1.6767.9215 0 1.6756-.7485 1.6756-1.6767 0-.92221-.7481-1.67677-1.6756-1.676771-.9276 0-1.6756.748571-1.6756 1.676771zM95.0269 48.4246c0 .9222.7481 1.6768 1.6756 1.6768.9216 0 1.6756-.7486 1.6756-1.6768s-.748-1.6767-1.6756-1.6767c-.9216 0-1.6756.7485-1.6756 1.6767zM95.0269 36.8612c0 .9281.7481 1.6767 1.6756 1.6767.9216 0 1.6756-.7486 1.6756-1.6767 0-.9222-.748-1.6767-1.6756-1.6767-.9216 0-1.6756.7545-1.6756 1.6767zM95.0269 25.2976c0 .9282.7481 1.6768 1.6756 1.6768.9216 0 1.6756-.7486 1.6756-1.6768 0-.9222-.748-1.6767-1.6756-1.6767-.9216 0-1.6756.7545-1.6756 1.6767zM95.0269 13.7401c0 .9222.7481 1.6768 1.6756 1.6768.9216 0 1.6756-.7486 1.6756-1.6768 0-.9281-.748-1.6766-1.6756-1.6766-.9216 0-1.6756.7485-1.6756 1.6766zM95.0269 2.17706c0 .92221.7481 1.6767 1.6756 1.6767.9216 0 1.6756-.7485 1.6756-1.6767 0-.92221-.748-1.67677-1.6756-1.67677-.9216 0-1.6756.74857-1.6756 1.67677zM104.41 48.4246c0 .9222.748 1.6768 1.676 1.6768.921 0 1.676-.7486 1.676-1.6768s-.749-1.6768-1.676-1.6768c-.928 0-1.676.7486-1.676 1.6768zM104.41 36.8612c0 .9281.748 1.6767 1.676 1.6767.921 0 1.676-.7486 1.676-1.6767 0-.9222-.749-1.6767-1.676-1.6767-.928 0-1.676.7545-1.676 1.6767zM104.41 25.2976c0 .9282.748 1.6768 1.676 1.6768.921 0 1.676-.7486 1.676-1.6768 0-.9222-.749-1.6767-1.676-1.6767-.928 0-1.676.7545-1.676 1.6767zM104.41 13.7401c0 .9222.748 1.6768 1.676 1.6768.921 0 1.676-.7486 1.676-1.6768 0-.9281-.749-1.6766-1.676-1.6766-.928 0-1.676.7485-1.676 1.6766zM104.41 2.17708c0 .9222.748 1.67668 1.676 1.67668.921 0 1.676-.74849 1.676-1.67668 0-.9222-.749-1.676759-1.676-1.676759-.928 0-1.676.748569-1.676 1.676759zM57.5 105.823c0 .922.748 1.677 1.6756 1.677.9216 0 1.6756-.749 1.6756-1.677s-.7481-1.677-1.6756-1.677c-.9276 0-1.6756.749-1.6756 1.677zM57.5 94.2598c0 .9282.748 1.6768 1.6756 1.6768.9216 0 1.6756-.7486 1.6756-1.6768 0-.9222-.7481-1.6767-1.6756-1.6767-.9276 0-1.6756.7545-1.6756 1.6767zM57.5 82.6963c0 .9282.748 1.6767 1.6756 1.6767.9216 0 1.6756-.7485 1.6756-1.6767 0-.9222-.7481-1.6768-1.6756-1.6768-.9276 0-1.6756.7546-1.6756 1.6768zM57.5 71.1388c0 .9222.748 1.6767 1.6756 1.6767.9216 0 1.6756-.7486 1.6756-1.6767 0-.9282-.7481-1.6767-1.6756-1.6767-.9276 0-1.6756.7485-1.6756 1.6767zM60.8512 59.5757c0-.9222-.7481-1.6768-1.6756-1.6768-.9216 0-1.6756.7486-1.6756 1.6768 0 .9222.748 1.6767 1.6756 1.6767.9216-.006 1.6756-.7545 1.6756-1.6767zM66.8829 105.823c0 .922.748 1.677 1.6756 1.677.9275 0 1.6755-.749 1.6755-1.677s-.748-1.677-1.6755-1.677c-.9276 0-1.6756.749-1.6756 1.677zM66.8829 94.2598c0 .9282.748 1.6768 1.6756 1.6768.9275 0 1.6755-.7486 1.6755-1.6768 0-.9222-.748-1.6767-1.6755-1.6767-.9276 0-1.6756.7545-1.6756 1.6767zM66.8829 82.6963c0 .9282.748 1.6767 1.6756 1.6767.9275 0 1.6755-.7485 1.6755-1.6767 0-.9222-.748-1.6768-1.6755-1.6768-.9276 0-1.6756.7546-1.6756 1.6768zM66.8829 71.1388c0 .9222.748 1.6767 1.6756 1.6767.9275 0 1.6755-.7486 1.6755-1.6767 0-.9282-.748-1.6767-1.6755-1.6767-.9276 0-1.6756.7485-1.6756 1.6767zM66.8829 59.5757c0 .9222.748 1.6767 1.6756 1.6767.9275 0 1.6755-.7485 1.6755-1.6767 0-.9222-.748-1.6768-1.6755-1.6768-.9276 0-1.6756.7486-1.6756 1.6768zM76.2662 105.823c0 .922.748 1.677 1.6755 1.677.9276 0 1.6756-.749 1.6756-1.677s-.748-1.677-1.6756-1.677c-.9275 0-1.6755.749-1.6755 1.677zM76.2662 94.2598c0 .9282.748 1.6768 1.6755 1.6768.9276 0 1.6756-.7486 1.6756-1.6768 0-.9222-.748-1.6767-1.6756-1.6767-.9275 0-1.6755.7545-1.6755 1.6767zM76.2662 82.6963c0 .9282.748 1.6768 1.6755 1.6768.9276 0 1.6756-.7486 1.6756-1.6768 0-.9222-.748-1.6768-1.6756-1.6768-.9275 0-1.6755.7546-1.6755 1.6768zM76.2662 71.1388c0 .9222.748 1.6767 1.6755 1.6767.9276 0 1.6756-.7486 1.6756-1.6767 0-.9282-.748-1.6767-1.6756-1.6767-.9275 0-1.6755.7485-1.6755 1.6767zM76.2662 59.5757c0 .9222.748 1.6767 1.6755 1.6767.9276 0 1.6756-.7485 1.6756-1.6767 0-.9222-.748-1.6768-1.6755-1.6768-.9276 0-1.6756.7486-1.6756 1.6768zM85.6504 105.823c0 .922.748 1.677 1.6756 1.677.9215 0 1.6756-.749 1.6756-1.677s-.7481-1.677-1.6756-1.677c-.9276 0-1.6756.749-1.6756 1.677zM85.6504 94.2598c0 .9282.748 1.6768 1.6756 1.6768.9215 0 1.6756-.7486 1.6756-1.6768 0-.9222-.7481-1.6767-1.6756-1.6767-.9276 0-1.6756.7545-1.6756 1.6767zM85.6504 82.6963c0 .9282.748 1.6768 1.6756 1.6768.9215 0 1.6756-.7486 1.6756-1.6768 0-.9222-.7481-1.6768-1.6756-1.6768-.9276 0-1.6756.7546-1.6756 1.6768zM85.6504 71.1388c0 .9222.748 1.6767 1.6756 1.6767.9215 0 1.6756-.7485 1.6756-1.6767s-.7481-1.6767-1.6756-1.6767c-.9276 0-1.6756.7485-1.6756 1.6767zM85.6504 59.5757c0 .9222.748 1.6767 1.6756 1.6767.9215 0 1.6756-.7485 1.6756-1.6767 0-.9222-.7481-1.6768-1.6756-1.6768-.9276 0-1.6756.7486-1.6756 1.6768zM95.0269 105.823c0 .922.7481 1.677 1.6756 1.677.9216 0 1.6756-.749 1.6756-1.677s-.748-1.677-1.6756-1.677c-.9216 0-1.6756.749-1.6756 1.677zM95.0269 94.2598c0 .9282.7481 1.6768 1.6756 1.6768.9216 0 1.6756-.7486 1.6756-1.6768 0-.9222-.748-1.6767-1.6756-1.6767-.9216 0-1.6756.7545-1.6756 1.6767zM95.0269 82.6963c0 .9282.7481 1.6768 1.6756 1.6768.9216 0 1.6756-.7486 1.6756-1.6768 0-.9222-.748-1.6768-1.6756-1.6768-.9216 0-1.6756.7546-1.6756 1.6768zM95.0269 71.1388c0 .9222.7481 1.6767 1.6756 1.6767.9216 0 1.6756-.7485 1.6756-1.6767s-.748-1.6767-1.6756-1.6767c-.9216 0-1.6756.7485-1.6756 1.6767zM95.027 59.5757c0 .9222.748 1.6767 1.6756 1.6767.9215 0 1.6755-.7485 1.6755-1.6767 0-.9222-.748-1.6768-1.6755-1.6768-.9216 0-1.6756.7486-1.6756 1.6768zM104.41 105.823c0 .922.748 1.677 1.676 1.677.921 0 1.676-.749 1.676-1.677s-.749-1.677-1.676-1.677c-.928 0-1.676.749-1.676 1.677zM104.41 94.2598c0 .9282.748 1.6768 1.676 1.6768.921 0 1.676-.7486 1.676-1.6768 0-.9222-.749-1.6767-1.676-1.6767-.928 0-1.676.7545-1.676 1.6767zM104.41 82.6963c0 .9282.748 1.6768 1.676 1.6768.921 0 1.676-.7486 1.676-1.6768 0-.9222-.749-1.6768-1.676-1.6768-.928 0-1.676.7546-1.676 1.6768zM104.41 71.1388c0 .9222.748 1.6767 1.676 1.6767.921 0 1.676-.7485 1.676-1.6767s-.749-1.6767-1.676-1.6767c-.928 0-1.676.7485-1.676 1.6767zM104.41 59.5757c0 .9222.748 1.6767 1.676 1.6767.921 0 1.676-.7485 1.676-1.6767 0-.9222-.749-1.6768-1.676-1.6768-.928 0-1.676.7486-1.676 1.6768z"/>
  </g>
  <defs>
    <clipPath id="clip0">
      <path fill="#fff" transform="rotate(-90 110.5 -3)" d="M0 0h107v54H0z"/>
    </clipPath>
    <clipPath id="clip1">
      <path fill="#fff" transform="rotate(-90 139 -31.5)" d="M0 0h107v54H0z"/>
    </clipPath>
    <clipPath id="clip2">
      <path fill="#fff" transform="rotate(-90 54 53.5)" d="M0 0h107v54H0z"/>
    </clipPath>
    <clipPath id="clip3">
      <path fill="#fff" transform="rotate(-90 82.5 25)" d="M0 0h107v54H0z"/>
    </clipPath>
  </defs>
</svg>
