<?xml version="1.0" encoding="UTF-8" ?>
<svg width="92" height="47" fill="none" xmlns="http://www.w3.org/2000/svg">
  <path d="M73.0039 1.84342c0-.849781-.6898-1.54508-1.5451-1.54508-.8497 0-1.545.68978-1.545 1.54507 0 .8553.6898 1.54508 1.545 1.54508.8553 0 1.5451-.68978 1.5451-1.54507zM91.0039 1.84342c0-.849781-.6898-1.54508-1.5451-1.54508-.8497 0-1.545.68978-1.545 1.54507 0 .8553.6898 1.54508 1.545 1.54508.8553 0 1.5451-.68978 1.5451-1.54507zM73.0039 12.4982c0-.8553-.6898-1.5451-1.5451-1.5451-.8497 0-1.545.6898-1.545 1.5451 0 .8498.6898 1.545 1.545 1.545.8553 0 1.5451-.6952 1.5451-1.545zM91.0039 12.4982c0-.8553-.6898-1.5451-1.5451-1.5451-.8497 0-1.545.6898-1.545 1.5451 0 .8498.6898 1.545 1.545 1.545.8553 0 1.5451-.6952 1.5451-1.545zM73.0039 23.1545c0-.8553-.6898-1.5451-1.5451-1.5451-.8497 0-1.545.6898-1.545 1.5451 0 .8497.6898 1.545 1.545 1.545.8553 0 1.5451-.6953 1.5451-1.545zM91.0039 23.1545c0-.8553-.6898-1.5451-1.5451-1.5451-.8497 0-1.545.6898-1.545 1.5451 0 .8497.6898 1.545 1.545 1.545.8553 0 1.5451-.6953 1.5451-1.545zM73.0039 33.8039c0-.8498-.6898-1.5451-1.5451-1.5451-.8497 0-1.545.6898-1.545 1.5451s.6898 1.545 1.545 1.545c.8553 0 1.5451-.6897 1.5451-1.545zM91.0039 33.8039c0-.8498-.6898-1.5451-1.5451-1.5451-.8497 0-1.545.6898-1.545 1.5451s.6898 1.545 1.545 1.545c.8553 0 1.5451-.6897 1.5451-1.545zM69.9138 44.4586c0 .8498.6898 1.5451 1.545 1.5451.8498 0 1.5451-.6898 1.5451-1.5451 0-.8498-.6898-1.545-1.5451-1.545-.8497.0055-1.545.6952-1.545 1.545zM87.9138 44.4586c0 .8498.6898 1.5451 1.545 1.5451.8498 0 1.5451-.6898 1.5451-1.5451 0-.8498-.6898-1.545-1.5451-1.545-.8497.0055-1.545.6952-1.545 1.545zM64.3516 1.84342c0-.849781-.6898-1.54508-1.5451-1.54508s-1.545.68978-1.545 1.54507c0 .8553.6897 1.54508 1.545 1.54508s1.5451-.68978 1.5451-1.54507zM82.3516 1.84342c0-.849781-.6898-1.54508-1.5451-1.54508s-1.545.68978-1.545 1.54507c0 .8553.6897 1.54508 1.545 1.54508s1.5451-.68978 1.5451-1.54507zM64.3516 12.4982c0-.8553-.6898-1.5451-1.5451-1.5451s-1.545.6898-1.545 1.5451c0 .8498.6897 1.545 1.545 1.545s1.5451-.6952 1.5451-1.545zM82.3516 12.4982c0-.8553-.6898-1.5451-1.5451-1.5451s-1.545.6898-1.545 1.5451c0 .8498.6897 1.545 1.545 1.545s1.5451-.6952 1.5451-1.545zM64.3516 23.1545c0-.8553-.6898-1.5451-1.5451-1.5451s-1.545.6898-1.545 1.5451c0 .8497.6897 1.545 1.545 1.545s1.5451-.6953 1.5451-1.545zM82.3516 23.1545c0-.8553-.6898-1.5451-1.5451-1.5451s-1.545.6898-1.545 1.5451c0 .8497.6897 1.545 1.545 1.545s1.5451-.6953 1.5451-1.545zM64.3516 33.8039c0-.8498-.6898-1.5451-1.5451-1.5451s-1.545.6898-1.545 1.5451.6897 1.545 1.545 1.545 1.5451-.6897 1.5451-1.545zM82.3516 33.8039c0-.8498-.6898-1.5451-1.5451-1.5451s-1.545.6898-1.545 1.5451.6897 1.545 1.545 1.545 1.5451-.6897 1.5451-1.545zM64.3516 44.4586c0-.8498-.6898-1.545-1.5451-1.545s-1.545.6897-1.545 1.545c0 .8498.6897 1.5451 1.545 1.5451s1.5451-.6898 1.5451-1.5451zM82.3516 44.4586c0-.8498-.6898-1.545-1.5451-1.545s-1.545.6897-1.545 1.545c0 .8498.6897 1.5451 1.545 1.5451s1.5451-.6898 1.5451-1.5451zM55.6992 1.84342c0-.849781-.6897-1.54508-1.545-1.54508s-1.5451.68978-1.5451 1.54507c0 .8553.6898 1.54508 1.5451 1.54508s1.545-.68978 1.545-1.54507zM55.6992 12.4982c0-.8553-.6897-1.5451-1.545-1.5451s-1.5451.6898-1.5451 1.5451c0 .8498.6898 1.545 1.5451 1.545s1.545-.6952 1.545-1.545zM55.6992 23.1545c0-.8553-.6897-1.5451-1.545-1.5451s-1.5451.6898-1.5451 1.5451c0 .8497.6898 1.545 1.5451 1.545s1.545-.6953 1.545-1.545zM55.6992 33.8039c0-.8498-.6897-1.5451-1.545-1.5451s-1.5451.6898-1.5451 1.5451.6898 1.545 1.5451 1.545 1.545-.6897 1.545-1.545zM55.6992 44.4586c0-.8498-.6897-1.545-1.545-1.545s-1.5451.6897-1.5451 1.545c0 .8498.6898 1.5451 1.5451 1.5451s1.545-.6898 1.545-1.5451zM47.0469 1.84342c0-.849781-.6898-1.54508-1.5451-1.54508-.8497 0-1.545.68978-1.545 1.54507 0 .8553.6897 1.54508 1.545 1.54508s1.5451-.68978 1.5451-1.54507zM47.0469 12.4982c0-.8553-.6898-1.5451-1.5451-1.5451-.8497 0-1.545.6898-1.545 1.5451 0 .8498.6897 1.545 1.545 1.545s1.5451-.6952 1.5451-1.545zM47.0469 23.1545c0-.8553-.6898-1.5451-1.5451-1.5451-.8497 0-1.545.6898-1.545 1.5451 0 .8497.6897 1.545 1.545 1.545s1.5451-.6953 1.5451-1.545zM47.0469 33.8039c0-.8498-.6898-1.5451-1.5451-1.5451-.8497 0-1.545.6898-1.545 1.5451s.6897 1.545 1.545 1.545 1.5451-.6897 1.5451-1.545zM47.0469 44.4586c0-.8498-.6898-1.545-1.5451-1.545-.8497 0-1.545.6897-1.545 1.545 0 .8498.6897 1.5451 1.545 1.5451s1.5451-.6898 1.5451-1.5451zM38.4004 1.84342c0-.849781-.6898-1.54508-1.5451-1.54508-.8497 0-1.545.68978-1.545 1.54507 0 .8553.6897 1.54508 1.545 1.54508.8498 0 1.5451-.68978 1.5451-1.54507zM38.4004 12.4982c0-.8553-.6898-1.5451-1.5451-1.5451-.8497 0-1.545.6898-1.545 1.5451 0 .8498.6897 1.545 1.545 1.545.8498 0 1.5451-.6952 1.5451-1.545zM38.4004 23.1545c0-.8553-.6898-1.5451-1.5451-1.5451-.8497 0-1.545.6898-1.545 1.5451 0 .8497.6897 1.545 1.545 1.545.8498 0 1.5451-.6953 1.5451-1.545zM38.4004 33.8039c0-.8498-.6898-1.5451-1.5451-1.5451-.8497 0-1.545.6898-1.545 1.5451s.6897 1.545 1.545 1.545c.8498 0 1.5451-.6897 1.5451-1.545zM38.4004 44.4586c0-.8498-.6898-1.545-1.5451-1.545-.8497 0-1.545.6897-1.545 1.545 0 .8498.6897 1.5451 1.545 1.5451.8498 0 1.5451-.6898 1.5451-1.5451zM29.748 1.84342c0-.849781-.6897-1.54508-1.545-1.54508-.8498 0-1.5451.68978-1.5451 1.54507 0 .8553.6898 1.54508 1.5451 1.54508s1.545-.68978 1.545-1.54507zM29.748 12.4982c0-.8553-.6897-1.5451-1.545-1.5451-.8498 0-1.5451.6898-1.5451 1.5451 0 .8498.6898 1.545 1.5451 1.545s1.545-.6952 1.545-1.545zM29.748 23.1545c0-.8553-.6897-1.5451-1.545-1.5451-.8498 0-1.5451.6898-1.5451 1.5451 0 .8497.6898 1.545 1.5451 1.545s1.545-.6953 1.545-1.545zM29.748 33.8039c0-.8498-.6897-1.5451-1.545-1.5451-.8498 0-1.5451.6898-1.5451 1.5451s.6898 1.545 1.5451 1.545 1.545-.6897 1.545-1.545zM29.748 44.4586c0-.8498-.6897-1.545-1.545-1.545-.8498 0-1.5451.6897-1.5451 1.545 0 .8498.6898 1.5451 1.5451 1.5451s1.545-.6898 1.545-1.5451zM21.0957 1.84342c0-.849781-.6897-1.54508-1.545-1.54508-.8498 0-1.5451.68978-1.5451 1.54507 0 .8553.6898 1.54508 1.5451 1.54508s1.545-.68978 1.545-1.54507zM21.0957 12.4982c0-.8553-.6897-1.5451-1.545-1.5451-.8498 0-1.5451.6898-1.5451 1.5451 0 .8498.6898 1.545 1.5451 1.545s1.545-.6952 1.545-1.545zM21.0957 23.1545c0-.8553-.6897-1.5451-1.545-1.5451-.8498 0-1.5451.6898-1.5451 1.5451 0 .8497.6898 1.545 1.5451 1.545s1.545-.6953 1.545-1.545zM21.0957 33.8039c0-.8498-.6897-1.5451-1.545-1.5451-.8498 0-1.5451.6898-1.5451 1.5451s.6898 1.545 1.5451 1.545 1.545-.6897 1.545-1.545zM21.0957 44.4586c0-.8498-.6897-1.545-1.545-1.545-.8498 0-1.5451.6897-1.5451 1.545 0 .8498.6898 1.5451 1.5451 1.5451s1.545-.6898 1.545-1.5451zM12.4434 1.84342c0-.849781-.6898-1.54508-1.5451-1.54508-.8498 0-1.54504.68978-1.54504 1.54507 0 .8553.68974 1.54508 1.54504 1.54508s1.5451-.68978 1.5451-1.54507zM12.4434 12.4982c0-.8553-.6898-1.5451-1.5451-1.5451-.8498 0-1.54504.6898-1.54504 1.5451 0 .8498.68974 1.545 1.54504 1.545s1.5451-.6952 1.5451-1.545zM12.4434 23.1545c0-.8553-.6898-1.5451-1.5451-1.5451-.8498 0-1.54504.6898-1.54504 1.5451 0 .8497.68974 1.545 1.54504 1.545s1.5451-.6953 1.5451-1.545zM12.4434 33.8039c0-.8498-.6898-1.5451-1.5451-1.5451-.8498 0-1.54504.6898-1.54504 1.5451s.68974 1.545 1.54504 1.545 1.5451-.6897 1.5451-1.545zM12.4434 44.4586c0-.8498-.6898-1.545-1.5451-1.545-.8498 0-1.54504.6897-1.54504 1.545 0 .8498.68974 1.5451 1.54504 1.5451s1.5451-.6898 1.5451-1.5451zM3.79102 1.84342c0-.849781-.68977-1.54508-1.54506-1.54508-.84978 0-1.545044.68978-1.545044 1.54507-.000001.8553.689744 1.54508 1.545044 1.54508.85529 0 1.54506-.68978 1.54506-1.54507zM3.79102 12.4982c0-.8553-.68977-1.5451-1.54506-1.5451-.84978 0-1.545044.6898-1.545044 1.5451-.000001.8498.689744 1.545 1.545044 1.545.85529 0 1.54506-.6952 1.54506-1.545zM3.79102 23.1545c0-.8553-.68977-1.5451-1.54506-1.5451-.84978 0-1.545044.6898-1.545044 1.5451-.000001.8497.689744 1.545 1.545044 1.545.85529 0 1.54506-.6953 1.54506-1.545zM3.79102 33.8039c0-.8498-.68977-1.5451-1.54506-1.5451-.84978 0-1.545044.6898-1.545044 1.5451-.000001.8553.689744 1.545 1.545044 1.545.85529 0 1.54506-.6897 1.54506-1.545zM3.79102 44.4586c0-.8498-.68977-1.545-1.54506-1.545-.84978 0-1.545044.6897-1.545044 1.545-.000001.8498.689744 1.5451 1.545044 1.5451.85529 0 1.54506-.6898 1.54506-1.5451z" fill="#FBBB0E"/>
</svg>
