<svg width="505" height="442" fill="none" xmlns="http://www.w3.org/2000/svg">
  <g clip-path="url(#clip0)">
    <path d="M505 168.605H50.5675v42.991H505v-42.991zM505 261.976H50.5674L3.37109 295.562H457.804L505 261.976z" fill="#036"/>
    <path d="M130.126 190.772h-11.461v73.891h11.461v-73.891zM130.126 288.845h-11.461v87.325h11.461v-87.325zM436.902 190.772H425.44v73.891h11.462v-73.891zM436.902 266.678H425.44V376.17h11.462V266.678zM55.9611 288.845h-11.462v87.325h11.462v-87.325zM362.737 266.678h-11.462V376.17h11.462V266.678z" fill="#036"/>
    <path d="M149.679 198.161c19.553 11.419 41.803 29.556 47.871 31.571 8.765 2.687 17.53 8.061 16.856 11.42-1.349 3.359-7.417 4.702-13.485 2.687-4.72-1.344-35.06-9.404-57.984-22.839-17.53-10.748-34.386-20.824-39.105-28.213-1.349-2.687 0-4.702 1.348-6.717 4.045-6.718 20.901-2.015 44.499 12.091z" fill="#FF5959"/>
    <path d="M193.505 274.067c20.227 6.717 18.204 21.495 11.462 40.304-11.462 30.9-33.712 81.279-48.545 110.164 0 .672-4.72 5.374-4.72 6.046-5.394 8.732-14.159 3.358-12.81-8.733 1.348-19.48 26.295-157.185 54.613-147.781z" fill="#001830"/>
    <path d="M23.5982 274.067c-22.923853-21.495 26.2951-38.289 41.1282-45.006 12.1362-5.374 26.2951-.672 39.1056 4.03 26.969 10.076 55.961 21.496 82.93 31.572 10.114.671 31.015 12.091 23.599 32.915-8.091 22.839-22.25 9.404-26.295 10.747-23.599-2.015-137.5439-12.763-160.4678-34.258zM139.566 419.833c-3.371 1.344-3.371 14.106-3.371 14.106-.674 2.687 22.924 8.733 38.431 8.061 4.046 0 6.068-5.374 2.697-8.732-4.719-4.031-34.386-14.778-37.757-13.435z" fill="#001830"/>
    <path d="M223.171 257.274c20.901 2.687 21.575 18.137 18.878 37.617-4.719 32.243-17.53 85.982-26.295 117.553 0 .672-3.371 6.046-3.371 6.717-4.045 9.405-13.485 6.046-14.833-6.045-1.349-20.152-4.046-159.873 25.621-155.842z" fill="#001830"/>
    <path d="M59.3322 278.769c-26.2951-16.121 15.5073-31.571 28.3178-40.975 10.7877-7.39 25.621-5.374 39.105-3.359 28.318 4.702 117.317 6.045 117.317 42.319 0 24.182-19.553 14.106-23.598 16.122-23.598 2.015-134.1725 2.687-161.1418-14.107zM198.898 410.429c-2.697 2.015-.674 14.106-.674 14.106 0 2.687 24.272 4.031 39.106.672 4.045-.672 4.719-6.717 1.348-8.733-5.394-3.358-37.083-8.06-39.78-6.045z" fill="#001830"/>
    <path d="M105.18 79.9363l-29.6659-1.3435c-25.6208-.6717-47.1962 18.8085-47.8704 45.0062L12.8105 258.617l133.4985-18.808 4.045-112.18c.674-25.526-19.553-47.021-45.174-47.6927z" fill="#FBBB0E"/>
    <path d="M19.5526 125.614C4.71951 149.125-6.06821 179.353 4.04527 185.398c7.41653 4.031 26.29503-20.824 41.12813-44.334 14.8331-23.511 20.9012-46.3497 13.4847-51.0518-7.4166-4.7022-24.2724 11.4198-39.1055 35.6018z" fill="#FF5959"/>
    <path d="M32.3631 206.222c8.0907 21.495 14.1588 49.036 18.2042 54.41 4.7196 8.061 7.4166 14.778 4.0454 16.793-3.3711 2.016-10.1135-2.015-14.1589-7.389-2.6969-4.03-18.8785-25.525-28.3177-50.38-7.41657-19.48-13.48466-37.617-12.810423-46.349.674232-3.359 2.696933-3.359 4.719623-4.702 8.765-2.687 18.2043 11.419 28.3178 37.617z" fill="#FF5959"/>
    <path d="M65.4003 96.058c0-6.7174-6.7423-8.7325-13.4846-6.7174-7.4166 2.0152-16.8558 7.3891-22.2497 13.4344-8.0907 9.405-19.5527 27.541-24.27232 38.961 1.34846 1.343 27.64352 17.465 33.71162 18.137 12.1362-13.435 26.295-45.007 26.295-63.815z" fill="#FBBB0E"/>
    <path d="M87.6502 92.0276c6.0681 0 10.1135-4.7021 10.1135-10.076V58.441L75.514 51.7236l1.3485 30.228c.6742 5.3739 5.3939 10.076 10.7877 10.076z" fill="#FF5959"/>
    <path d="M89.6732 51.7236l-14.1589 2.0152c-3.3711.6717-6.7423-2.0152-7.4165-5.3739-.6742-3.3586 2.0227-6.7173 5.3938-7.389l14.8331-2.0152 1.3485 12.7629z" fill="#FF5959"/>
    <path d="M87.6506 11.4196c6.068-.6718 12.8104 2.0152 16.8554 6.7173 4.72 5.3738 5.394 12.7629 5.394 19.4802 0 8.0608 1.349 16.7933-1.348 24.1824-4.046 11.4194-16.8561 9.4043-26.2953 6.0456-2.6969-.6717-4.0454-2.6869-5.3939-4.7021-5.3938-10.076-4.7196-21.4955-5.3938-32.9149-.6743-8.7325 6.7423-17.4651 16.1816-18.8085z" fill="#FF5959"/>
    <path d="M82.2564 26.1977c2.6969-4.7021 8.765-4.7021 14.1589-4.0304 5.3937.6717 11.4617.6717 14.8327-3.3587 3.372-3.3586 2.023-9.40422-1.348-13.43462-3.371-3.35866-8.091-4.702127-13.4847-5.37386-10.1135-.671732-20.9012 2.0152-28.3178 9.40426C60.681 16.7934 56.6356 32.915 64.0521 40.9758c3.3712 3.3587 9.4393 4.0304 12.8104 1.3435 5.3939-4.0304 2.0227-11.4195 5.3939-16.1216z" fill="#001830"/>
    <path d="M289.246 267.35c-20.227 6.717-18.205 21.495-11.462 40.304 10.787 30.899 35.06 83.294 49.893 112.851 0 .671 2.697 3.358 2.697 3.358 5.394 8.733 14.159 3.359 12.81-8.732-1.348-19.48-24.946-157.185-53.938-147.781z" fill="#FF5959"/>
    <path d="M459.152 270.708c6.742-6.045 10.114-11.419 9.439-23.51-1.348-14.779-39.779-19.481-49.893-24.183-12.136-5.374-26.295-.671-39.105 4.031-26.97 10.076-55.962 21.495-82.931 31.571-10.113.672 139.566 32.915 162.49 12.091zM343.184 415.131c3.371 1.343 3.371 14.106 3.371 14.106.675 2.687-22.924 8.733-38.431 8.061-4.045 0-6.068-5.374-2.697-8.732 4.046-4.703 34.386-14.779 37.757-13.435z" fill="#001830"/>
    <path d="M272.39 268.693c-21.576 1.344-22.924 16.122-21.576 35.602 2.697 32.915 12.136 90.012 18.879 121.584 0 .671 2.022 4.03 2.022 4.03 3.372 10.076 12.811 6.717 14.834-5.374 3.371-18.808 16.181-157.857-14.159-155.842z" fill="#FF5959"/>
    <path d="M459.152 270.708c6.743-6.045-8.765-11.419-9.439-23.51-1.348-14.779-39.78-19.481-49.893-24.183-12.136-5.374-26.295-.671-39.106 4.031-26.969 10.076-111.248 46.349-111.248 46.349l70.12 34.259s126.082-24.855 139.566-36.946zM286.549 425.207c2.697 2.015-.675 14.106-.675 14.106 0 2.687-24.946 2.015-39.105-2.015-4.045-1.344-4.72-6.717-.674-8.733 6.068-3.358 37.757-5.374 40.454-3.358z" fill="#001830"/>
    <path d="M387.684 79.2646l42.476.6717c29.666 3.3587 34.386 18.1368 35.06 43.6627l4.046 123.599-123.385-14.107 2.023-66.501-5.394-39.632c-1.348-25.526 18.878-46.3499 45.174-47.6934z" fill="#fff"/>
    <path d="M458.478 135.69c2.697 27.541-.674 59.785-12.811 60.456-8.09.672-14.833-30.228-17.53-57.769-2.697-27.541 2.023-51.0514 10.114-51.7231 8.765-.6717 17.53 20.8241 20.227 49.0361z" fill="#FF5959"/>
    <path d="M411.282 175.322c-22.924 1.344-50.568 6.718-57.31 5.374-8.765-1.343-16.182-1.343-16.856 2.687-.674 3.359 5.394 8.733 12.136 10.076 4.72.672 31.015 7.389 57.31 6.046 20.901-.672 33.712 1.343 41.128-3.359 2.697-1.343 4.72-10.076 4.72-12.091-.674-8.733-12.811-10.076-41.128-8.733z" fill="#FF5959"/>
    <path d="M430.16 89.3407c2.697-6.0456 14.833-4.7021 20.227 0 6.068 5.3739 14.159 55.0823 13.485 67.1733-1.349.672-32.363 4.03-37.757 1.343-5.394-17.465-4.046-51.723 4.045-68.5163z" fill="#fff"/>
    <path d="M362.737 133.675c-16.856 22.167-41.128 42.991-50.567 35.602-6.743-5.374 9.439-32.243 26.969-54.41 16.856-22.1675 36.408-36.2739 43.151-30.9 6.068 5.3738-2.023 27.541-19.553 49.708z" fill="#FF5959"/>
    <path d="M284.526 151.14c-22.924-2.015-51.242 0-57.31-2.015-8.765-2.687-16.181-3.359-17.53 0-1.348 3.359 4.72 9.404 10.788 11.419 4.72 1.344 53.939 11.42 80.234 13.435 20.901 2.015 22.924-7.389 22.924-9.404 1.348-8.733-10.788-11.42-39.106-13.435z" fill="#FF5959"/>
    <path d="M370.154 83.295c6.742-2.6869 16.855-1.3434 17.53 5.3739.674 8.0608-26.295 55.0821-35.735 63.1431-1.348 0-26.295-18.809-28.317-24.183 8.765-16.121 28.992-36.9449 46.522-44.334z" fill="#fff"/>
    <path d="M404.54 92.0277c-6.069 0-10.114-4.7021-10.114-10.7477V57.7693l22.25-6.0456-1.349 30.228c-.674 5.3739-4.719 10.076-10.787 10.076z" fill="#FF5959"/>
    <path d="M403.191 51.7236l14.159 2.0152c3.371.6717 6.742-2.0152 7.417-5.3739.674-3.3586-2.023-6.7173-5.394-7.389l-14.833-2.0152-1.349 12.7629z" fill="#FF5959"/>
    <path d="M405.214 11.4196c-6.068-.6718-12.811 1.3434-16.856 6.0456-4.72 5.3738-5.394 12.7629-5.394 19.4802 0 8.0608-1.349 16.7933 1.348 24.1824 4.046 11.4194 16.856 10.076 26.296 6.0456 2.696-.6718 4.045-2.687 5.393-4.7022 5.394-10.0759 4.72-21.4954 5.394-32.9148 0-8.7326-6.742-16.7934-16.181-18.1368z" fill="#FF5959"/>
    <path d="M370.828 141.736l-12.811-39.632c-6.068 2.015-11.462 4.03-14.158 12.091-16.182 49.036 16.855 51.723 20.901 47.021 4.719-5.374 5.394-12.091 6.068-19.48z" fill="#fff"/>
    <path d="M479.379 73.8907c-11.462-18.8085-30.34-32.2432-51.916-37.617L417.35 42.991c18.878 8.0608 33.712 23.5106 41.128 42.3191 1.349 3.3587 2.697 7.3891 4.72 10.7477 2.022 3.3587 5.394 6.0452 9.439 6.0452 6.068 0 10.788-5.3734 11.462-11.419 1.348-6.0456-1.349-11.4195-4.72-16.7933z" fill="#001830"/>
    <path d="M424.092 53.067c0 3.3586 3.371 6.0455 6.742 6.0455 3.372 0 6.743-2.0152 8.091-4.7021 2.023-2.6869 2.697-6.0456 2.697-9.4042 0-4.0304 0-8.7326-2.023-12.0912-2.022-3.3587-5.394-6.7173-9.439-6.7173" fill="#fff"/>
    <path d="M375.548 25.526c0 7.389 5.393 14.7781 11.462 14.1064 2.022 0 4.045-1.3435 6.068-1.3435 4.045 0 7.416 4.0304 9.439 8.0608 2.023 4.0304 4.045 8.7325 7.416 11.4194 5.394 4.7022 14.159 2.687 19.553-3.3586s7.417-15.4499 6.068-22.8389c-1.348-8.0608-4.045-16.1216-10.113-20.152-31.015-16.79333-49.893-.6718-49.893 14.1064z" fill="#001830"/>
  </g>
  <defs>
    <clipPath id="clip0">
      <path fill="#fff" d="M0 0h505v442H0z"/>
    </clipPath>
  </defs>
</svg>
